<svg xmlns="http://www.w3.org/2000/svg" width="8.366" height="18" viewBox="0 0 8.366 18">
  <g id="facebook_icon" data-name="facebook icon" transform="translate(-146.32)">
    <g id="Group_1" data-name="Group 1" transform="translate(146.32)">
      <path id="Path_9" data-name="Path 9" d="M154.082,0h-1.875a4.035,4.035,0,0,0-3.091,1.021,4.3,4.3,0,0,0-.939,3.009V5.294a.6.6,0,0,1-.6.6h-.648a.6.6,0,0,0-.6.6V8.4a.6.6,0,0,0,.6.6h.648a.6.6,0,0,1,.6.6V17.4a.6.6,0,0,0,.6.6H151.3a.6.6,0,0,0,.6-.6V9.6a.6.6,0,0,1,.6-.6h1.27a.686.686,0,0,0,.668-.6l.2-1.9a.532.532,0,0,0-.541-.6h-1.6a.6.6,0,0,1-.6-.6V4.347a3.394,3.394,0,0,1,.033-.541,1.052,1.052,0,0,1,.147-.377.6.6,0,0,1,.371-.257,2.645,2.645,0,0,1,.683-.071h.947a.6.6,0,0,0,.6-.6V.6A.6.6,0,0,0,154.082,0Z" transform="translate(-146.32)" fill="#fff"/>
    </g>
  </g>
</svg>
