<svg xmlns="http://www.w3.org/2000/svg" width="573.401" height="407.596" viewBox="0 0 573.401 407.596">
  <g id="illustration_3" data-name="illustration 3" transform="translate(0.034 0.03)">
    <path id="Path_764" data-name="Path 764" d="M129.936,352.928c-72.207.193-92.769-.193-111.11-13.611-43.44-31.953-12.163-126.073,97.209-150.5,26.161-5.792,45.95-5.889,66.512-29.153,16.121-18.245,22.589-40.351,30.312-61.009C229.559,54.447,265.469-4.922,342.407.291c40.834,2.9,68.056,24.037,89.39,50.873,20.176,25.388,34.076,53.287,41.509,81.957,10.039,38.71,53.576,64.581,77.516,98.464,22.3,31.566,40.448,87.653-8.784,111.882C514.043,357.176,510.761,351.963,129.936,352.928Z" transform="translate(0 0)" fill="#eaeaea"/>
    <g id="Group_120" data-name="Group 120" transform="translate(353.122 54.447)">
      <g id="Group_119" data-name="Group 119">
        <rect id="Rectangle_155" data-name="Rectangle 155" width="114.103" height="120.281" fill="#ffe7b6"/>
      </g>
    </g>
    <g id="Group_125" data-name="Group 125" transform="translate(368.953 70.375)">
      <g id="Group_121" data-name="Group 121" transform="translate(11.777)">
        <path id="Path_765" data-name="Path 765" d="M362.62,117.906l-.483-.772,50.2-50.2.676.676-48.267,48.17L399.4,98.5l.386.869Z" transform="translate(-362.137 -66.937)" fill="#e9524d"/>
      </g>
      <g id="Group_122" data-name="Group 122" transform="translate(5.116 24.809)">
        <path id="Path_766" data-name="Path 766" d="M362.945,104.821a7.143,7.143,0,1,1,7.143-7.143A7.127,7.127,0,0,1,362.945,104.821Zm0-13.322a6.159,6.159,0,0,0-6.178,6.178,6.178,6.178,0,1,0,6.178-6.178Z" transform="translate(-355.802 -90.534)" fill="#1a1a1a"/>
      </g>
      <g id="Group_123" data-name="Group 123" transform="translate(11.681 12.936)">
        <path id="Path_767" data-name="Path 767" d="M400.08,117.275H362.045V79.24H400.08Zm-37.165-.869h36.2v-36.2h-36.2Z" transform="translate(-362.045 -79.24)" fill="#1a1a1a"/>
      </g>
      <g id="Group_124" data-name="Group 124" transform="translate(0 1.158)">
        <path id="Path_768" data-name="Path 768" d="M363.195,92.558a12.26,12.26,0,1,1,12.26-12.26A12.277,12.277,0,0,1,363.195,92.558Zm0-23.458a11.294,11.294,0,1,0,11.294,11.294A11.309,11.309,0,0,0,363.195,69.1Z" transform="translate(-350.935 -68.038)" fill="#e9524d"/>
      </g>
    </g>
    <g id="Group_126" data-name="Group 126" transform="translate(193.648 25.679)">
      <circle id="Ellipse_54" data-name="Ellipse 54" cx="40.737" cy="40.737" r="40.737" fill="#3c6960"/>
    </g>
    <g id="Group_128" data-name="Group 128" transform="translate(184.534 16.6)">
      <g id="Group_127" data-name="Group 127">
        <circle id="Ellipse_55" data-name="Ellipse 55" cx="35.234" cy="35.234" r="35.234" transform="translate(0 49.829) rotate(-45)" fill="#fed4a1"/>
      </g>
    </g>
    <g id="Group_129" data-name="Group 129" transform="translate(233.999 43.731)">
      <path id="Path_769" data-name="Path 769" d="M230,72.678l-7.433-8.205V41.594h.676V64.183l7.337,8.012Z" transform="translate(-222.571 -41.594)" fill="#e9524d"/>
    </g>
    <g id="Group_156" data-name="Group 156" transform="translate(202.626 34.657)">
      <g id="Group_142" data-name="Group 142">
        <g id="Group_132" data-name="Group 132" transform="translate(31.373)">
          <g id="Group_130" data-name="Group 130">
            <rect id="Rectangle_156" data-name="Rectangle 156" width="0.772" height="3.186" fill="#1a1a1a"/>
          </g>
          <g id="Group_131" data-name="Group 131" transform="translate(0 60.334)">
            <rect id="Rectangle_157" data-name="Rectangle 157" width="0.772" height="3.186" fill="#1a1a1a"/>
          </g>
        </g>
        <g id="Group_135" data-name="Group 135" transform="translate(9.068 9.118)">
          <g id="Group_133" data-name="Group 133" transform="translate(42.601)">
            <rect id="Rectangle_158" data-name="Rectangle 158" width="3.186" height="0.772" transform="translate(0 2.253) rotate(-45)" fill="#1a1a1a"/>
          </g>
          <g id="Group_134" data-name="Group 134" transform="translate(0 42.567)">
            <rect id="Rectangle_159" data-name="Rectangle 159" width="3.186" height="0.772" transform="translate(0 2.253) rotate(-45)" fill="#1a1a1a"/>
          </g>
        </g>
        <g id="Group_138" data-name="Group 138" transform="translate(0 31.47)">
          <g id="Group_136" data-name="Group 136" transform="translate(60.237)">
            <rect id="Rectangle_160" data-name="Rectangle 160" width="3.186" height="0.772" fill="#1a1a1a"/>
          </g>
          <g id="Group_137" data-name="Group 137">
            <rect id="Rectangle_161" data-name="Rectangle 161" width="3.186" height="0.772" fill="#1a1a1a"/>
          </g>
        </g>
        <g id="Group_141" data-name="Group 141" transform="translate(9.093 9.032)">
          <g id="Group_139" data-name="Group 139" transform="translate(42.554 42.605)">
            <rect id="Rectangle_162" data-name="Rectangle 162" width="0.772" height="3.186" transform="translate(0 0.546) rotate(-45)" fill="#1a1a1a"/>
          </g>
          <g id="Group_140" data-name="Group 140">
            <rect id="Rectangle_163" data-name="Rectangle 163" width="0.772" height="3.186" transform="translate(0 0.546) rotate(-45)" fill="#1a1a1a"/>
          </g>
        </g>
      </g>
      <g id="Group_155" data-name="Group 155" transform="translate(2.263 2.355)">
        <g id="Group_145" data-name="Group 145" transform="translate(16.836 0.043)">
          <g id="Group_143" data-name="Group 143" transform="translate(23.336 55.501)">
            <rect id="Rectangle_164" data-name="Rectangle 164" width="0.772" height="3.185" transform="matrix(0.922, -0.387, 0.387, 0.922, 0, 0.299)" fill="#1a1a1a"/>
          </g>
          <g id="Group_144" data-name="Group 144">
            <rect id="Rectangle_165" data-name="Rectangle 165" width="0.772" height="3.185" transform="matrix(0.922, -0.387, 0.387, 0.922, 0, 0.299)" fill="#1a1a1a"/>
          </g>
        </g>
        <g id="Group_148" data-name="Group 148" transform="translate(17.109)">
          <g id="Group_146" data-name="Group 146" transform="translate(0 55.737)">
            <rect id="Rectangle_166" data-name="Rectangle 166" width="3.186" height="0.772" transform="matrix(0.378, -0.926, 0.926, 0.378, 0, 2.949)" fill="#1a1a1a"/>
          </g>
          <g id="Group_147" data-name="Group 147" transform="translate(22.87)">
            <rect id="Rectangle_167" data-name="Rectangle 167" width="3.186" height="0.772" transform="matrix(0.378, -0.926, 0.926, 0.378, 0, 2.949)" fill="#1a1a1a"/>
          </g>
        </g>
        <g id="Group_151" data-name="Group 151" transform="translate(0.111 16.85)">
          <g id="Group_149" data-name="Group 149" transform="translate(0 23.259)">
            <rect id="Rectangle_168" data-name="Rectangle 168" width="3.185" height="0.772" transform="matrix(0.922, -0.387, 0.387, 0.922, 0, 1.233)" fill="#1a1a1a"/>
          </g>
          <g id="Group_150" data-name="Group 150" transform="translate(55.532)">
            <rect id="Rectangle_169" data-name="Rectangle 169" width="3.185" height="0.772" transform="matrix(0.922, -0.387, 0.387, 0.922, 0, 1.233)" fill="#1a1a1a"/>
          </g>
        </g>
        <g id="Group_154" data-name="Group 154" transform="translate(0 17.099)">
          <g id="Group_152" data-name="Group 152">
            <rect id="Rectangle_170" data-name="Rectangle 170" width="0.772" height="3.186" transform="matrix(0.378, -0.926, 0.926, 0.378, 0, 0.715)" fill="#1a1a1a"/>
          </g>
          <g id="Group_153" data-name="Group 153" transform="translate(55.792 22.774)">
            <rect id="Rectangle_171" data-name="Rectangle 171" width="0.772" height="3.186" transform="matrix(0.378, -0.926, 0.926, 0.378, 0, 0.715)" fill="#1a1a1a"/>
          </g>
        </g>
      </g>
    </g>
    <g id="Group_164" data-name="Group 164" transform="translate(191.331 156.965)">
      <g id="Group_157" data-name="Group 157" transform="translate(84.95 133.699)">
        <rect id="Rectangle_172" data-name="Rectangle 172" width="58.017" height="38.131" fill="#8eaca6"/>
      </g>
      <g id="Group_158" data-name="Group 158" transform="translate(0)">
        <path id="Path_770" data-name="Path 770" d="M410,161.269V280.585a11.968,11.968,0,0,1-11.97,11.97H193.957a11.968,11.968,0,0,1-11.97-11.97V161.269a11.968,11.968,0,0,1,11.97-11.97H398.029A12.03,12.03,0,0,1,410,161.269Z" transform="translate(-181.987 -149.299)" fill="#3c6960"/>
      </g>
      <g id="Group_159" data-name="Group 159">
        <path id="Path_771" data-name="Path 771" d="M410,161.269V263.884H181.987V161.269a11.968,11.968,0,0,1,11.97-11.97H398.029A12.03,12.03,0,0,1,410,161.269Z" transform="translate(-181.987 -149.299)" fill="#8eaca6"/>
      </g>
      <g id="Group_160" data-name="Group 160" transform="translate(109.18 124.142)">
        <path id="Path_772" data-name="Path 772" d="M295.488,272.206a4.827,4.827,0,1,1-4.827-4.827A4.841,4.841,0,0,1,295.488,272.206Z" transform="translate(-285.835 -267.379)" fill="#e8524d"/>
      </g>
      <g id="Group_161" data-name="Group 161" transform="translate(68.249 171.83)">
        <rect id="Rectangle_173" data-name="Rectangle 173" width="91.514" height="7.143" fill="#3c6960"/>
      </g>
      <g id="Group_162" data-name="Group 162" transform="translate(131.286 131.768)">
        <rect id="Rectangle_174" data-name="Rectangle 174" width="36.49" height="1.062" fill="#1a1a1a"/>
      </g>
      <g id="Group_163" data-name="Group 163" transform="translate(159.087 125.301)">
        <rect id="Rectangle_175" data-name="Rectangle 175" width="22.203" height="1.062" fill="#1a1a1a"/>
      </g>
    </g>
    <g id="Group_165" data-name="Group 165" transform="translate(238.536 172.314)">
      <rect id="Rectangle_176" data-name="Rectangle 176" width="133.506" height="83.888" fill="#fceeee"/>
    </g>
    <g id="Group_166" data-name="Group 166" transform="translate(164.785 225.118)">
      <circle id="Ellipse_56" data-name="Ellipse 56" cx="15.542" cy="15.542" r="15.542" fill="#fcb64e"/>
    </g>
    <g id="Group_167" data-name="Group 167" transform="translate(101.266 252.823)">
      <path id="Path_773" data-name="Path 773" d="M99.022,245.882a2.7,2.7,0,0,1-2.7-2.7,2.639,2.639,0,0,1,2.7-2.7,2.7,2.7,0,0,1,2.7,2.7A2.639,2.639,0,0,1,99.022,245.882Zm0-4.344a1.641,1.641,0,1,0,1.641,1.641A1.627,1.627,0,0,0,99.022,241.538Z" transform="translate(-96.319 -240.476)" fill="#1a1a1a"/>
    </g>
    <g id="Group_168" data-name="Group 168" transform="translate(95.509 247.441)">
      <rect id="Rectangle_177" data-name="Rectangle 177" width="7.433" height="91.416" transform="translate(69.897 64.641) rotate(135)" fill="#fed4a1"/>
    </g>
    <g id="Group_169" data-name="Group 169" transform="translate(157.963 312.271)">
      <rect id="Rectangle_178" data-name="Rectangle 178" width="7.433" height="22.492" transform="translate(7.433 22.492) rotate(180)" fill="#fed4a1"/>
    </g>
    <g id="Group_170" data-name="Group 170" transform="translate(125.216 328.864)">
      <rect id="Rectangle_179" data-name="Rectangle 179" width="73.076" height="7.143" transform="translate(73.076 7.143) rotate(180)" fill="#a5a2d0"/>
    </g>
    <g id="Group_171" data-name="Group 171" transform="translate(95.411 209.177)">
      <rect id="Rectangle_180" data-name="Rectangle 180" width="7.433" height="70.179" transform="translate(49.624) rotate(45)" fill="#fed4a1"/>
    </g>
    <g id="Group_172" data-name="Group 172" transform="translate(137.683 199.175)">
      <path id="Path_774" data-name="Path 774" d="M164.238,202.648l-9.074-9.074a14.275,14.275,0,0,0-20.079,0h0a14.275,14.275,0,0,0,0,20.079l9.074,9.074a31.064,31.064,0,0,0,7.626,31.373l43.826-43.826A31.064,31.064,0,0,0,164.238,202.648Z" transform="translate(-130.958 -189.447)" fill="#a5a2d0"/>
    </g>
    <g id="Group_173" data-name="Group 173" transform="translate(98.273 250.217)">
      <circle id="Ellipse_57" data-name="Ellipse 57" cx="5.792" cy="5.792" r="5.792" fill="#a5a2d0"/>
    </g>
    <text id="TO_DO_LIST:_1._GET_COFFEE_2._KEEP_EYES_OPEN_3._BE_PRODUCTIVE" data-name="TO DO LIST:
1. GET COFFEE
2. KEEP EYES OPEN
3. BE PRODUCTIVE" transform="translate(263.552 201.45)" fill="#1a1a1a" stroke="#1a1a1a" stroke-miterlimit="10" stroke-width="0.144" font-size="9" font-family="Consolas"><tspan x="0" y="0">TO DO LIST:</tspan><tspan x="0" y="11">1. GET COFFEE</tspan><tspan x="0" y="22">2. KEEP EYES OPEN</tspan><tspan x="0" y="33">3. BE PRODUCTIVE</tspan></text>
    <g id="Group_174" data-name="Group 174" transform="translate(459.116 198.571)">
      <path id="Path_775" data-name="Path 775" d="M484.865,188.873a48.12,48.12,0,0,1-48.17,48.17A48.243,48.243,0,0,1,484.865,188.873Z" transform="translate(-436.695 -188.873)" fill="#3c6960"/>
    </g>
    <g id="Group_175" data-name="Group 175" transform="translate(409.111 187.373)">
      <path id="Path_776" data-name="Path 776" d="M389.132,178.222a43.032,43.032,0,0,1,43.054,43.054A43.094,43.094,0,0,1,389.132,178.222Z" transform="translate(-389.132 -178.222)" fill="#3c6960"/>
    </g>
    <g id="Group_176" data-name="Group 176" transform="translate(387.295 219.326)">
      <path id="Path_777" data-name="Path 777" d="M368.381,208.615a57.6,57.6,0,0,1,57.631,57.631A57.472,57.472,0,0,1,368.381,208.615Z" transform="translate(-368.381 -208.615)" fill="#3c6960"/>
    </g>
    <g id="Group_177" data-name="Group 177" transform="translate(387.005 218.94)">
      <path id="Path_778" data-name="Path 778" d="M426.508,296.189h-.869V266.457l-57.534-57.534.676-.676,57.727,57.824Z" transform="translate(-368.105 -208.247)" fill="#1a1a1a"/>
    </g>
    <g id="Group_178" data-name="Group 178" transform="translate(408.918 187.084)">
      <path id="Path_779" data-name="Path 779" d="M432.582,297.745h-.869V221.29l-42.764-42.668.676-.676L432.582,220.9Z" transform="translate(-388.949 -177.947)" fill="#1a1a1a"/>
    </g>
    <g id="Group_179" data-name="Group 179" transform="translate(458.73 198.089)">
      <path id="Path_780" data-name="Path 780" d="M437.2,297.111h-.869V236.778l48.267-48.363.676.676L437.2,237.164Z" transform="translate(-436.328 -188.414)" fill="#1a1a1a"/>
    </g>
    <g id="Group_180" data-name="Group 180" transform="translate(409.111 302.441)">
      <path id="Path_781" data-name="Path 781" d="M389.132,287.671h85.915l-20.369,70.856H409.5Z" transform="translate(-389.132 -287.671)" fill="#fcb64e"/>
    </g>
    <g id="Group_181" data-name="Group 181" transform="translate(421.564 370.015)">
      <rect id="Rectangle_181" data-name="Rectangle 181" width="60.913" height="6.468" fill="#fed4a1"/>
    </g>
    <g id="Group_183" data-name="Group 183" transform="translate(181.871 353.894)">
      <g id="Group_182" data-name="Group 182">
        <path id="Path_782" data-name="Path 782" d="M173.085,336.611h45.081V367.7a22.618,22.618,0,0,1-22.589,22.589h0A22.618,22.618,0,0,1,172.988,367.7V336.611Z" transform="translate(-172.988 -336.611)" fill="#fcb64e"/>
      </g>
    </g>
    <g id="Group_184" data-name="Group 184" transform="translate(190.752 288.734)" opacity="0.5">
      <path id="Path_783" data-name="Path 783" d="M241.673,294.133h-1.834a13.49,13.49,0,0,0,1.738-6.468h0a13.1,13.1,0,0,0-13.032-13.032h-8.591a13.039,13.039,0,0,0-13.032,13.032h0a12.954,12.954,0,0,0,8.205,12.067,13.052,13.052,0,0,0-2.317,7.433h0a13.491,13.491,0,0,0,1.738,6.468H207.5A26.141,26.141,0,0,0,181.436,339.7h49.715a13.1,13.1,0,0,0,13.032-13.032h0a13.491,13.491,0,0,0-1.738-6.468A13.107,13.107,0,0,0,254.8,307.165h0A13.185,13.185,0,0,0,241.673,294.133Z" transform="translate(-181.436 -274.633)" fill="#f6bba9"/>
    </g>
  </g>
</svg>
