<svg xmlns="http://www.w3.org/2000/svg" width="462.868" height="431.124" viewBox="0 0 462.868 431.124">
  <g id="illustration_2" data-name="illustration 2" transform="translate(-0.026 -0.007)">
    <g id="Layer_1" data-name="Layer 1" transform="translate(0.026 0.007)">
      <path id="Path_669" data-name="Path 669" d="M89.27,213.244c4.642-1.079,122.091-1.1,67.306-87.719C85.127,12.764,277.252-26.007,349.478,17.29c154.248,92.465-20.47,138.86,83.936,223.144C594.752,370.694,42.933,389.494,6.959,304.27-23.062,233.25,51.88,221.866,89.27,213.244Z" transform="translate(-0.026 -0.007)" fill="#eaeaea"/>
      <ellipse id="Ellipse_49" data-name="Ellipse 49" cx="124.169" cy="13.09" rx="124.169" ry="13.09" transform="translate(153.289 404.944)" fill="#e9e4f1"/>
      <path id="Path_670" data-name="Path 670" d="M274.1,349.555c-.244,1.323,1.648,5.35-1.729,8.309s-11.024,6.058-5.953,6.174a29.568,29.568,0,0,0,12.533-2.321c2.576-1.276.522-3.284,3.725-4.294,4.212-1.335,3.342-4.433,1.16-6.348C281.012,344.786,274.85,345.261,274.1,349.555Z" transform="translate(42.446 55.563)" fill="#dc9c7b"/>
      <path id="Path_671" data-name="Path 671" d="M210.712,347.372c-.766,1.393-.719,6.719-5.036,8.587s-12.626,2.089-8.019,4.4a24.659,24.659,0,0,0,12.452,2.739c2.89-.337,1.845-3.481,5.2-3.226,4.421.3,4.909-3.551,3.69-6.638C219.056,344.924,213.184,342.87,210.712,347.372Z" transform="translate(31.468 55.355)" fill="#dc9c7b"/>
      <path id="Path_672" data-name="Path 672" d="M193.39,183c-.464.5-.928,1-1.439,1.474-4.015,3.655-7.972,4.862-12.765,8.46a46.868,46.868,0,0,0-4.224,2.762,16.653,16.653,0,0,0-3.563,5c-.569,1.358,2.623-.348,2.623-.348s-1.694,1.393-1.369,2.321a29.673,29.673,0,0,0,6.383,3.04c4-.754,5-5.535,8.262-7.647a7.068,7.068,0,0,1,2.472-1.23,4.329,4.329,0,0,1-1.056,2.7c-.545.87-1,1.915-.453,2.692a9.767,9.767,0,0,0,1.265-.743c2.425-1.613,5-3.389,5.872-5.733.511-1.4.36-2.866.963-4.259,1.079-2.495,4.375-4.259,5.361-6.777" transform="translate(27.461 29.355)" fill="#dc9c7b"/>
      <path id="Path_673" data-name="Path 673" d="M216.8,192.79s-8.309.081-9.156,3.655C203.162,215.407,197,277.4,197,284.71c0,9.168,8.123,88.856,8.123,88.856s15.863,1.822,16.107,1,14.2-133.951,14.2-133.951,12.986,83.263,45,130.83c2.75,4.085,19.623,8.123,19.507-2.576-.209-19.055-35.638-174.37-35.638-174.37" transform="translate(31.579 30.926)" fill="#6f6864"/>
      <path id="Path_674" data-name="Path 674" d="M214.38,81.7c-.058-1.694-1.834-2.785-3.365-1.044-1.277,1.451-1.613,4.2-1.694,6.22-.081,2.437,1.8,2.913,3.354,3.249" transform="translate(33.556 12.791)" fill="#f1a080"/>
      <path id="Path_675" data-name="Path 675" d="M199.289,119.5c6.835-8.344,14.807-2.321,26.238-9.052,7.253-4.236,33.92,1.787,36.694,7.891,1.416,3.11,2.936,35.023.87,46.024-1.567,8.274-5.559,28.768-5.559,33.653s2.657,7.067,1.416,8.506c-2.773,3.214-21.759,4.561-30.671,4.561-7.938,0-21.445-2.112-22.13-4.642-1.01-3.771-5.152-.209-4.8-4.154s2.692-57.222.6-62.827C200.368,135.245,196.283,123.165,199.289,119.5Z" transform="translate(31.774 17.486)" fill="#a5a2d0"/>
      <path id="Path_676" data-name="Path 676" d="M252.73,140.328c.94,1.961,7.357,12.289,7.357,12.289l.267,1.23c-.162,2.147,5.222,12.173,5.8,13.589,2.948,7.752,6.545,12.266,2.773,18.335-2.611,4.2,1.033,18.428-10.282,21.167-3.574.87-41.034,4.282-39.27-3.992.162-.754,30.056-23.557,30.172-24.37,1.381-6.545,2.576-11.256,3.191-16.037C254.18,151.1,251.778,138.355,252.73,140.328Z" transform="translate(35.16 22.476)" fill="#9494c4"/>
      <path id="Path_677" data-name="Path 677" d="M201.207,120.33s-.963,27.851-1.474,37.947c-.766,14.923-20.494,41.138-20.494,41.138l8.889-3.481s26.412-17.233,26.69-18.683S201.207,120.33,201.207,120.33Z" transform="translate(28.73 19.299)" fill="#a5a2d0"/>
      <path id="Path_678" data-name="Path 678" d="M215.951,101.318s-.081,10.444-.511,10.8a16.524,16.524,0,0,1-2.46,1.393s1.462,9.017,3.713,8.344,17.2-8.251,17.2-8.251-2.124-.859-2.124-1.694,2.008-17.163,2.008-17.163" transform="translate(34.143 15.195)" fill="#dc9c7b"/>
      <path id="Path_679" data-name="Path 679" d="M202.19,139.23s4.247,25.263,1.613,32.226,4.166,9.783,4.305,8.936S202.19,139.23,202.19,139.23Z" transform="translate(32.412 22.332)" fill="#9494c4"/>
      <path id="Path_680" data-name="Path 680" d="M215.568,120.33s-.87,40.5-2.518,65.148l5.953,8.2,4.1-10.282a313.068,313.068,0,0,0-3.876-62.781Z" transform="translate(34.155 19.299)" fill="#171743"/>
      <path id="Path_681" data-name="Path 681" d="M214,117.623l.139.557a11.082,11.082,0,0,0,1.23,2.994h0l3.655.29s2.483-1.311,2.808-2.7-4.073-3.69-4.073-3.69l-.534.209a7.822,7.822,0,0,0-3.18,2.321Z" transform="translate(34.307 18.455)" fill="#171743"/>
      <path id="Path_682" data-name="Path 682" d="M231.333,106.13a15.156,15.156,0,0,1,4.166,4.224c-1.88,4.305-6.127,11.941-10.8,15.422a21.039,21.039,0,0,0-7.415-9.284S230.022,114.23,231.333,106.13Z" transform="translate(34.833 17.021)" fill="#fff"/>
      <path id="Path_683" data-name="Path 683" d="M218.313,116.413a15.713,15.713,0,0,0-7.264,6.963,34.616,34.616,0,0,1,.986-12.765s2.994-3.829,4.027-3.911A20.111,20.111,0,0,0,218.313,116.413Z" transform="translate(33.801 17.112)" fill="#fff"/>
      <path id="Path_684" data-name="Path 684" d="M219.033,194.26c-4.526.673-6.2,2.321-8.75,4.874a.952.952,0,0,0-.383.754c0,.36.487.522.847.58,2.1.337,2.449-1,4.41-1.822q1.984-.836,3.969-1.706" transform="translate(33.649 31.162)" fill="#f1a080"/>
      <path id="Path_685" data-name="Path 685" d="M209.963,166.124,226,217.532a1.845,1.845,0,0,1-1.694,2.588l-33.525,2.936a3.087,3.087,0,0,1-2.8-2.158l-17.256-50.642c-.429-1.381,1.555-3.354,2.913-3.354l33.514-2.9a3.133,3.133,0,0,1,2.808,2.124Z" transform="translate(27.354 26.306)" fill="#e8e4f1"/>
      <path id="Path_686" data-name="Path 686" d="M208.853,167.3l15.817,50.619a1.834,1.834,0,0,1-1.694,2.576L189.5,223.431a3.087,3.087,0,0,1-2.8-2.158l-15.829-50.619a1.845,1.845,0,0,1,1.706-2.588l33.467-2.936a3.1,3.1,0,0,1,2.808,2.17Z" transform="translate(27.362 26.488)" fill="#ded7eb"/>
      <path id="Path_687" data-name="Path 687" d="M180.54,165.759l1.184,4.433,15.655-1.381-1.288-4.421Z" transform="translate(28.938 26.369)" fill="#fff"/>
      <path id="Path_688" data-name="Path 688" d="M183.124,162.589l1.567,5.025,7.473-.685L190.6,161.9a5.071,5.071,0,0,0-4.955-3.574,3.064,3.064,0,0,0-2.518,4.259Zm1.659-.093a1.706,1.706,0,0,1,1.416-2.391,2.832,2.832,0,0,1,2.773,2,1.706,1.706,0,0,1-1.4,2.391,2.843,2.843,0,0,1-2.785-1.984Z" transform="translate(29.313 25.397)" fill="#fff"/>
      <path id="Path_689" data-name="Path 689" d="M231.942,191.16a141.114,141.114,0,0,0-13.844,3.992,41.777,41.777,0,0,0-5.976,4.41c-3.481,3.481-1.717,5.176-3.1,9.968a2.39,2.39,0,0,0-.093.766c0,.5.673.928,1.358.453.36.627,1.451.244,1.984-.429,0,.476.661.778,1.729.186.592-.325.487-.29,1.822-1.5a14.483,14.483,0,0,1,3.818-2.321,26.8,26.8,0,0,0,3.713-1.694c1.416-.94,3.957-1.16,5.21-5.21a3.98,3.98,0,0,1,1.95-1.95l5.721-3.6" transform="translate(33.493 30.664)" fill="#dc9c7b"/>
      <path id="Path_690" data-name="Path 690" d="M251.123,138.253c1.485,5.3,7.682,42.1,7.682,42.1L223.91,205.617l2.913,7.636s44.991-15.492,48.159-25.112c5.628-17.082-5.315-47.219-11.361-62.142-2.135-5.3-7.531-11.825-12.846-13.925l-8.657-1.613" transform="translate(35.897 17.716)" fill="#a5a2d0"/>
      <path id="Path_691" data-name="Path 691" d="M217.24,202.58c-.453.429-.928.859-1.4,1.265a8.5,8.5,0,0,0-1.265,1.323c-.395.476-.789.963-1.16,1.439a10.548,10.548,0,0,1-1.381,1.311c.29-.569.638-1.091.963-1.625a13.162,13.162,0,0,1,1.16-1.52,6.082,6.082,0,0,1,1.474-1.253,14.384,14.384,0,0,1,1.613-.94Z" transform="translate(33.991 32.497)" fill="#f1a080"/>
      <path id="Path_692" data-name="Path 692" d="M215.581,200.59a9.412,9.412,0,0,0-1.5,1.822,14.193,14.193,0,0,0-1.16,1.973,16.952,16.952,0,0,1-1.091,2.147,18.822,18.822,0,0,1-1.393,1.961c.267-.766.615-1.485.928-2.2l1.01-2.135a8.635,8.635,0,0,1,1.4-2.008A6.058,6.058,0,0,1,215.581,200.59Z" transform="translate(33.736 32.178)" fill="#f1a080"/>
      <path id="Path_693" data-name="Path 693" d="M213.56,199a14.659,14.659,0,0,1-1.381,1.868,3.133,3.133,0,0,0-.569.94l-.441,1.056c-.279.7-.557,1.4-.824,2.124l-.836,2.158a11.2,11.2,0,0,1,.337-2.321,13.436,13.436,0,0,1,.777-2.2c.162-.36.348-.7.545-1.044a4.212,4.212,0,0,1,.743-.952A19.81,19.81,0,0,1,213.56,199Z" transform="translate(33.587 31.922)" fill="#f1a080"/>
      <path id="Path_694" data-name="Path 694" d="M215.563,101.18l6.406,1.16a8.936,8.936,0,0,1-6.5,2.391" transform="translate(34.543 16.227)" fill="#d08868"/>
      <path id="Path_695" data-name="Path 695" d="M239.426,94.054c5.976-13.032,5.663-24.3-4.909-28.744S213.7,62.13,208.141,75.347s-2.785,31.576,1.4,34.175C219.292,115.58,235.678,102.224,239.426,94.054Z" transform="translate(32.867 10.1)" fill="#dc9c7b"/>
      <path id="Path_696" data-name="Path 696" d="M236.429,101.039l-1.961-1.16s5.907-7.125,3.969-9.539c-2.8-3.481-5.025-1.451-6.51-.5-6.87,4.375-1.5,14.923-4.862,17.685-7.821,6.406-15.829,4.41-18.915.731-6.034-7.218,5.083-3.655,4.236-7.926-.638-3.238-8.959.615-7.891-3.655.928-3.7,10.328,4.909,14.842,2.832,2.971-1.358,7.392-6.963,8.576-18.707,1.323-13.241-13.415-5.419-16.7-8.32-3.655-3.226-.743-5.152.986-6.5,2.913-2.24,20.888-9.388,29.731,1.984C255.089,84.944,236.429,101.039,236.429,101.039Z" transform="translate(32.767 9.892)" fill="#171743"/>
      <path id="Path_697" data-name="Path 697" d="M291.6,360.268l-34.245,9.492s-1.973-2.4-1.044-4.224,5.338-.824,6.441-1.88,11.8-12.556,11.8-12.556,4.236,3.481,6.731,3.551,5.8-3.551,5.8-3.551Z" transform="translate(41.057 56.327)" fill="#6f6864"/>
      <path id="Path_698" data-name="Path 698" d="M217.99,363.838l-29.464,1.938s-1.451-2.762-.162-4.352,4.909-1.5,6.208-2.321,14.633-8.123,14.633-8.123,3.481,4.212,5.872,4.839,6.417-2.321,6.417-2.321l1.033,4.073a5.025,5.025,0,0,1-4.537,6.266Z" transform="translate(30.108 56.308)" fill="#6f6864"/>
    </g>
  </g>
</svg>
