<svg xmlns="http://www.w3.org/2000/svg" xmlns:xlink="http://www.w3.org/1999/xlink" width="605" height="392.499" viewBox="0 0 605 392.499">
  <defs>
    <clipPath id="clip-path">
      <rect id="Rectangle_154" data-name="Rectangle 154" width="147.695" height="97.517" rx="14.22" fill="none"/>
    </clipPath>
    <radialGradient id="radial-gradient" cx="0.109" cy="0.359" r="0.627" gradientTransform="translate(0.159) scale(0.683 1)" gradientUnits="objectBoundingBox">
      <stop offset="0" stop-color="#fff"/>
      <stop offset="1" stop-color="#fff" stop-opacity="0"/>
    </radialGradient>
    <linearGradient id="linear-gradient" x1="0.5" x2="0.5" y2="1" gradientUnits="objectBoundingBox">
      <stop offset="0" stop-color="#fed716"/>
      <stop offset="1" stop-color="#fcb216"/>
    </linearGradient>
  </defs>
  <g id="illustration" transform="translate(6.241 -13.342)">
    <path id="back" d="M90.781,218.712c-33.364,20.981-65.634,41.14-47.866,117.839s77.556,36.391,195.488,17.772,123.466-7.483,217,40.22S649.957,373.965,642.474,330s-30.574-40.392-41.155-83.246,3.564-46.836-19.77-68.2c-59.051-54.063-61.605,33.589-122.4-13.178S408.637,120.486,360,76.524,190.292,40.607,161.7,84.007s2.159,62.1-10.6,94.51C136.973,214.581,113.064,204.736,90.781,218.712Z" transform="translate(-44.107 -4.945)" fill="#f0f0f0"/>
    <g id="_2" data-name="2" transform="translate(458.672 125.233)">
      <path id="Path_701" data-name="Path 701" d="M541.926,169.255C531.914,162.871,442.678,238.1,446,297.53c0,0,17.375-23.463,32.516-34.888s16.614-23.4,16.584-35.263,22.623-6.918,25.173-20.1C524.729,184.011,550.939,175.008,541.926,169.255Z" transform="translate(-443.33 -168.875)" fill="#4eaf87"/>
      <path id="Path_702" data-name="Path 702" d="M547.787,224.807c-14.41,8.737-10.17,20.369-18.669,27.169-6.187,4.942-16.5,2.362-21.644,9.093-5.792,7.59.8,18.037,1.285,27.179.672,12.631-10.595,22.109-22.04,25.943-13.3,4.457-30.51,3.064-37.784-10.16-8.589-15.606-2.164-39.128,12.907-46.451,3.667-1.789,8.312-2.263,11.306-5.871,5.04-6.088,1.809-14.825,4.141-22.573,2.283-7.541,9.735-12.848,16.6-15.191s13.836-2.827,20.577-5.554c9.142-3.706,17.147-11.86,24.757-17.375,6.79-4.942,30.638-14.113,34.493,1.977C577.249,207.659,559.894,217.473,547.787,224.807Z" transform="translate(-443.321 -169.05)" fill="#339288"/>
      <path id="Path_703" data-name="Path 703" d="M549.248,201.56S490.315,231.21,443.3,326.721" transform="translate(-443.3 -169.256)" fill="none" stroke="#1c455a" stroke-miterlimit="10" stroke-width="1"/>
      <path id="Path_705" data-name="Path 705" d="M547.467,280.673c-7.225,2.9-9.182,15.062-16.96,16.614-5.653,1.117-11.692-3.884-17.217-1.285-6.236,2.965-5.139,11.712-7.679,17.671-3.518,8.243-13.975,10.585-22.781,9.29-10.219-1.512-21.209-8.005-21.891-18.778-.8-12.71,10.872-25.558,23.156-25.291,2.965.059,6.226,1.275,9.34,0,5.258-2.214,5.851-8.826,9.834-12.977s10.5-4.942,15.813-4.24,10.091,2.728,15.4,3.192c7.235.623,15.112-1.977,21.882-2.965,6.049-.909,30.757-.435,22.287,12.5C572.768,283.332,557.084,276.818,547.467,280.673Z" transform="translate(-443.506 -169.956)" fill="#4eaf87"/>
      <path id="Path_706" data-name="Path 706" d="M562.905,268.83s-52.628,4.487-113.835,49.821" transform="translate(-443.367 -170.042)" fill="none" stroke="#1c455a" stroke-miterlimit="10" stroke-width="1"/>
    </g>
    <g id="Group_118" data-name="Group 118" transform="translate(7.014 112.993)">
      <path id="Path_708" data-name="Path 708" d="M66.428,169.255C76.44,162.871,165.675,238.1,162.4,297.53c0,0-17.375-23.463-32.516-34.888s-16.624-23.4-16.594-35.263-22.6-6.987-25.163-20.1C83.615,184.011,57.414,175.008,66.428,169.255Z" transform="translate(-28.02 -168.875)" fill="#4eaf87"/>
      <path id="Path_709" data-name="Path 709" d="M60.2,224.807c14.42,8.737,10.18,20.369,18.679,27.169,6.177,4.942,16.5,2.362,21.634,9.093,5.8,7.59-.791,18.037-1.275,27.179-.672,12.631,10.595,22.109,22.04,25.943,13.293,4.457,30.5,3.064,37.784-10.16,8.589-15.606,2.155-39.128-12.917-46.451-3.657-1.789-8.3-2.263-11.3-5.871-5.05-6.088-1.809-14.825-4.141-22.573-2.283-7.541-9.735-12.848-16.6-15.191s-13.837-2.827-20.577-5.554c-9.142-3.706-17.147-11.86-24.708-17.375-6.79-4.942-30.638-14.113-34.5,1.977C30.737,207.659,48.092,217.473,60.2,224.807Z" transform="translate(-27.662 -169.05)" fill="#339288"/>
      <path id="Path_710" data-name="Path 710" d="M59,201.56s58.924,29.65,105.939,125.161" transform="translate(-27.956 -169.256)" fill="none" stroke="#1c455a" stroke-miterlimit="10" stroke-width="1"/>
      <path id="Path_712" data-name="Path 712" d="M60.61,280.673c7.225,2.9,9.182,15.062,16.96,16.614C83.223,298.4,89.261,293.4,94.786,296c6.226,2.965,5.129,11.712,7.679,17.671,3.518,8.243,13.965,10.585,22.731,9.29,10.229-1.512,21.209-8.005,21.9-18.778.8-12.71-10.872-25.558-23.156-25.291-2.965.059-6.226,1.275-9.34,0-5.268-2.214-5.861-8.826-9.883-12.977s-10.5-4.942-15.813-4.24-10.091,2.728-15.4,3.192c-7.235.623-15.111-1.977-21.891-2.965-6.049-.909-30.747-.435-22.277,12.5C35.329,283.332,51,276.818,60.61,280.673Z" transform="translate(-27.589 -169.956)" fill="#4eaf87"/>
      <path id="Path_713" data-name="Path 713" d="M45.26,268.83s52.628,4.487,113.825,49.821" transform="translate(-27.795 -170.042)" fill="none" stroke="#1c455a" stroke-miterlimit="10" stroke-width="1"/>
    </g>
    <g id="phone" transform="translate(307.996 77.033)">
      <path id="Path_700" data-name="Path 700" d="M339.774,158.564c-5.08-1.354-10.328-2.718-15.556-2.036s-10.466,3.953-11.86,9.014,2.748,11.356,7.986,10.763c1.878-.217,3.785-1.463,4.1-3.331.633-3.686-4.685-5.327-8.312-4.408-4.309,1.087-8.381,3.785-10.209,7.828s-.85,9.438,2.837,11.909,12.67.425,10.793-3.6c-2.382-5.1-11.4-2.8-16.209.128s-7.442,9.5-5.021,14.578,13.9,8.411,14.094,2.777c.2-5.93-11.593-5.08-15.813-.929s-4.042,11.988.465,15.872,16.8,4,15.813-1.868c-1.433-8.48-18.482-.751-20.646,7.571s5.8,17.572,14.36,16.653c1.6-.168,3.35-.781,4.052-2.234,1.166-2.421-1.443-5.07-4.032-5.782-6.75-1.858-14.42,4.2-14.192,11.2s8.292,12.532,14.9,10.229a4.784,4.784,0,0,0,3.084-2.5c.682-1.779-.563-3.874-2.313-4.635a7.363,7.363,0,0,0-5.564.3,13.659,13.659,0,0,0,8.154,25.973c1.72-.4,3.509-1.255,4.21-2.876a4.487,4.487,0,0,0-1.977-5.288,7.907,7.907,0,0,0-5.93-.731c-8.381,1.819-12.927,13.164-8.124,20.261s22.84,8.519,21.832,0c-.672-5.683-12.018-1.977-14.38,3.252s.88,12.028,6.3,13.906,15.892-.662,14.459-6.207c-.988-3.953-8.253-1.917-11.227.83a9.33,9.33,0,0,0-1.69,11.138c2.184,3.775,6.809,5.485,11.168,5.752s8.7-.6,13.066-.6a32.9,32.9,0,0,1,23.492,10.091" transform="translate(-291.876 -91.969)" fill="none" stroke="#ef404b" stroke-miterlimit="10" stroke-width="1"/>
      <path id="Path_715" data-name="Path 715" d="M365.513,328.945H350.491a3.192,3.192,0,0,1-3.173-2.965l-.988-11.86h23.394l-.988,11.86A3.182,3.182,0,0,1,365.513,328.945Z" transform="translate(-292.512 -93.811)" fill="#202a5b"/>
      <path id="Path_716" data-name="Path 716" d="M455.253,328.945H440.231a3.182,3.182,0,0,1-3.173-2.965l-.988-11.86H459.4l-.988,11.86A3.192,3.192,0,0,1,455.253,328.945Z" transform="translate(-293.56 -93.811)" fill="#202a5b"/>
      <path id="Path_717" data-name="Path 717" d="M456.823,297.553H347.91l7.7-64.577c.6-5.031,4.349-8.786,8.766-8.786h75.982c4.418,0,8.164,3.756,8.766,8.786Z" transform="translate(-292.531 -92.761)" fill="#ef404b"/>
      <path id="Path_718" data-name="Path 718" d="M349.659,285.52l-1.749,12.749H456.823l-1.749-12.749Z" transform="translate(-292.531 -93.477)" fill="#d0d0cf"/>
      <path id="Path_719" data-name="Path 719" d="M468.475,320.12H335.98l2.451-28.78H466.024Z" transform="translate(-292.391 -93.545)" fill="#ef404b"/>
      <circle id="Ellipse_50" data-name="Ellipse 50" cx="24.244" cy="24.244" r="24.244" transform="translate(76.286 158.08) rotate(-33.07)" fill="#d0d0cf"/>
      <circle id="Ellipse_51" data-name="Ellipse 51" cx="20.962" cy="20.962" r="20.962" transform="translate(88.394 144.737) rotate(-1.34)" fill="#fff"/>
      <path id="Path_721" data-name="Path 721" d="M400.215,276.35h0a2.718,2.718,0,0,1-2.3-3.084h0a2.708,2.708,0,0,1,3.074-2.3h0a2.728,2.728,0,0,1,2.313,3.074h0a2.728,2.728,0,0,1-2.7,2.342h0Zm-8.747-3.736h0a2.728,2.728,0,0,1-.465-3.825h0a2.708,2.708,0,0,1,3.815-.465h0a2.718,2.718,0,0,1,.474,3.815h0a2.728,2.728,0,0,1-2.155,1.048h0A2.738,2.738,0,0,1,391.468,272.614ZM385.756,265a2.708,2.708,0,0,1,1.5-3.528h0a2.728,2.728,0,0,1,3.548,1.492h0a2.738,2.738,0,0,1-1.512,3.548h0a2.827,2.827,0,0,1-.988.2h0a2.708,2.708,0,0,1-2.55-1.69Zm1.156-6.355a2.718,2.718,0,0,1-2.323-3.074h0a2.718,2.718,0,0,1,3.084-2.313h0a2.718,2.718,0,0,1,2.313,3.074h0a2.728,2.728,0,0,1-2.7,2.332h0a2.342,2.342,0,0,1-.376,0Zm1.868-8.005a2.718,2.718,0,0,1-.474-3.815h0a2.708,2.708,0,0,1,3.815-.474h0a2.7,2.7,0,0,1,.474,3.815h0a2.7,2.7,0,0,1-2.145,1.048h0a2.717,2.717,0,0,1-1.67-.553Zm21.971-2.708a2.708,2.708,0,0,1-.474-3.815h0a2.708,2.708,0,0,1,3.815-.484h0a2.728,2.728,0,0,1,.474,3.825h0a2.728,2.728,0,0,1-2.145,1.048h0a2.7,2.7,0,0,1-1.67-.553ZM394.4,244.644a2.708,2.708,0,0,1,1.5-3.538h0a2.718,2.718,0,0,1,3.538,1.492h0a2.728,2.728,0,0,1-1.5,3.548h0a2.628,2.628,0,0,1-.988.2h0a2.718,2.718,0,0,1-2.55-1.68Zm10.17.682a2.728,2.728,0,0,1-2.3-3.084h0a2.708,2.708,0,0,1,3.074-2.3h0A2.708,2.708,0,0,1,407.657,243h0a2.728,2.728,0,0,1-2.688,2.342h0Z" transform="translate(-292.958 -92.945)" fill="#b3b4b4"/>
      <path id="Path_723" data-name="Path 723" d="M448.53,130.754a11.613,11.613,0,0,1,.158-12.374s21.654,9.1,42.705,1.69c0,0,3.548,6.118-2.036,13.362C489.357,133.432,466.923,141.981,448.53,130.754Z" transform="translate(-293.685 -91.526)" fill="#d7323c"/>
      <path id="Path_724" data-name="Path 724" d="M475.493,96.675c-16.06-9.28-42.8-6.207-75.33,5.159-27.96,9.775-55.346,25.884-62.383,42.992-3.212,7.788,3.291,26.685,3.291,26.685,26.813-3.074,32.457-27.614,32.457-27.614s-2.965-6.147,2.5-10.071c19.006-13.718,50.632-22.89,63.144-22.079a9.013,9.013,0,0,1,8.233,6.325s19.707,15.675,42.6,1.374C490,119.437,482.786,100.886,475.493,96.675Z" transform="translate(-292.402 -91.209)" fill="#ef404b"/>
      <path id="Path_725" data-name="Path 725" d="M380.855,153.967a11.643,11.643,0,0,0-7.847-9.587S361.751,165,340.66,172.31c0,0,.988,6.987,9.883,9.182C350.583,181.492,373.453,174.2,380.855,153.967Z" transform="translate(-292.446 -91.83)" fill="#d7323c"/>
    </g>
    <g id="girl" transform="translate(168.361 14.162)">
      <path id="Path_726" data-name="Path 726" d="M261.659,156.869c0,.534.84.988.306,2.105-1.2,2.491-4.942,5.93-9.409,4.349-.2.069-24.708,14.232-26.586,14.232s-14.746-12.166-18.976-27.218c-.988-3.588-.613-7.818,2.748-9.636a7.986,7.986,0,0,1,4.635,4.121c2.777,5.258,11.119,22.662,12.967,23.324,2.3-1.532,13.53-4.872,22.613-8.727a6.138,6.138,0,0,0,3.518-2.965,29.873,29.873,0,0,1,3.775-5.93c.494-.494,5.861-3.37,5.871-2.431,0,.553-1.581,1.977-3.637,3.3a4.872,4.872,0,0,0-1.749,2.441c-.356.692,3.854-.583,4.2.87C262.024,154.971,261.639,156.592,261.659,156.869Z" transform="translate(-102.538 -101.513)" fill="#f3d4b3"/>
      <path id="Path_727" data-name="Path 727" d="M208.783,140.25a11.02,11.02,0,0,1,7.314,5.673,19.617,19.617,0,0,1,.988,2.293c1.3,3.321,3.1,6.325,4.408,9.646a19.766,19.766,0,0,1-5.762,2.777,12.227,12.227,0,0,1-5.367.712,2.333,2.333,0,0,1-.9-.2,3.024,3.024,0,0,1-.988-.8c-.563-.642-1.107-1.295-1.631-1.977a5.269,5.269,0,0,1-1.1-1.868,5.713,5.713,0,0,1,.257-2.965" transform="translate(-102.528 -101.508)" fill="#6b65ae"/>
      <path id="Path_729" data-name="Path 729" d="M200.88,133.2s-.1,4.378.573,4.665a17.054,17.054,0,0,0,2.836.88l.049,9.073L192.242,146l-8.322-4.635s8.648-2.866,8.717-3.736-.474-5.713-.474-5.713" transform="translate(-102.274 -101.41)" fill="#f3d4b3"/>
      <path id="Path_730" data-name="Path 730" d="M182.241,265.856h0c-3.311,15.695-1.739,37.25-2.471,49.06.168,0,4.5.593,4.5.593s10.229-49.792,12.087-59.3a12.307,12.307,0,0,0,.237-1.848c.445-7.175-6.019-7.541-9.666-1.6a24.291,24.291,0,0,0-1.66,3.2c-.208.465-.4.939-.6,1.443h0a45.728,45.728,0,0,0-1.6,5v.188c-.158.5-.277.988-.4,1.522v.119A13.1,13.1,0,0,0,182.241,265.856Z" transform="translate(-102.226 -102.773)" fill="#f3d4b3"/>
      <path id="Path_731" data-name="Path 731" d="M201.654,208.953c-.119,1.3-.81,7.482-1.641,14.766-.712,6.128-1.492,13.036-2.1,18.5-.455,4.111-.781,7.383-.919,8.895a19.019,19.019,0,0,1-.366,2.649h0c-1.552,7.165-6.5,7.58-9.518,5.93a6.327,6.327,0,0,1-1.146-.781,3.8,3.8,0,0,1-1.275-2.115h0c-.188-1.473-.385-3.479-.553-5.871h0c-.366-4.655-.672-10.644-.988-16.485-.326-7.165-.534-14.074-.593-17.968v-.633c-.049-11.949,10.921-19.6,17.74-15.892a1.4,1.4,0,0,1,.247.119l.257.158c.781.514.988,2.3,1.058,4.339C201.862,205.978,201.773,207.608,201.654,208.953Z" transform="translate(-102.259 -102.194)" fill="#f3d4b3"/>
      <path id="Path_732" data-name="Path 732" d="M184.969,254.633l-.83-3.123h0a49.842,49.842,0,0,1-1.038,10.872v.188c-.119.494-.247.988-.4,1.522v.119a8.184,8.184,0,0,0-.356,1.6h0c0,1.423,2.965-4.882,3.7-6.355l.138-.3-.81-3.271Z" transform="translate(-102.256 -102.807)" fill="#f3d4b3"/>
      <path id="Path_733" data-name="Path 733" d="M208.91,268.855h0c-.316,16.436,4.754,35.758,6.1,47.687.168,0,4.141-.534,4.141-.534s.761-50.335.81-60.288a15.812,15.812,0,0,0-.1-1.9c-.81-7.244-6.691-6-8.964.8a29.763,29.763,0,0,0-.988,3.6c-.1.524-.2,1.038-.287,1.591h0c-.277,1.69-.474,3.489-.593,5.377v.188c-.049.544-.069,1.077-.1,1.611v.129C208.93,267.777,208.92,268.281,208.91,268.855Z" transform="translate(-102.566 -102.777)" fill="#f3d4b3"/>
      <path id="Path_734" data-name="Path 734" d="M212.213,261.564a4.358,4.358,0,0,1-1.156-.5,3.281,3.281,0,0,1-1.512-1.779h0c-.425-1.413-.939-3.39-1.512-5.722V253.5c-1.117-4.527-2.431-10.407-3.657-16.129-1.5-7.047-2.876-13.837-3.578-17.79-.049-.208-.662-3.034-.7-3.242-2.105-12,7.254-19.767,14.054-17.533l.267.089c1.374.553,1.749,5.367,2.056,8.618s2.619,36.954,3.2,43.042a26.505,26.505,0,0,1,.119,2.738C219.6,260.813,215.208,262.464,212.213,261.564Z" transform="translate(-102.46 -102.187)" fill="#f3d4b3"/>
      <path id="Path_735" data-name="Path 735" d="M209.395,257.056l-1.285-2.906h0a56.333,56.333,0,0,1,.919,11.119v.188a8.875,8.875,0,0,1-.1,1.611v.128a9.251,9.251,0,0,0,0,1.68h0c.227,1.413,1.878-5.594,2.253-7.235a.693.693,0,0,1,.069-.326l-1.295-3.064Z" transform="translate(-102.557 -102.837)" fill="#f3d4b3"/>
      <path id="Path_736" data-name="Path 736" d="M215.814,159.354c-.069,3.212-1.769,5.159-4.22,7.907-.306.474-1.067,7.62-1.324,12.374-.138,2.471.919,4.023,0,4.23-3.528,3.074-16.218,5.554-22.04,1.364.613-5.169-1.7-16.545-3.261-22.336-.247-.889-.455-1.641-.652-2.224-1.453-4.4-4.082-18.492-2.135-19.114l1.68-.484c3.044-.919,7.541-2.5,7.541-2.5s2.639,7.808,9.488,8.747c3.746-1.542,3.42-6.276,3.37-8.45,1.226.336,1.769.672,5.554,1.8,1.067,1.532.148,4.734,1.868,9.5C212.108,151.31,215.9,155.451,215.814,159.354Z" transform="translate(-102.246 -101.488)" fill="#6b65ae"/>
      <path id="Path_737" data-name="Path 737" d="M230.785,322.659c-4.161.741-8.608-.425-10.437-.109-1.5.257-5.376,1.235-6.829-.059s-1.216-5.93.455-6.513a5.81,5.81,0,0,0,1.077.257,11.337,11.337,0,0,0,4.942-.405c3.163,1.3,3.281,1.878,6.918,2.6a24.483,24.483,0,0,1,4.6,1.394C233.008,320.534,233.127,322.234,230.785,322.659Z" transform="translate(-102.609 -103.558)" fill="#534da0"/>
      <path id="Path_738" data-name="Path 738" d="M191.34,325.36c-4.171-.7-6.81-2.965-8.628-3.321-1.512-.267-5.3-.988-5.7-2.56-.3-1.156.85-5.93,2.629-5.979a6.6,6.6,0,0,0,.929.613,11.445,11.445,0,0,0,4.774,1.285c2.54,2.293,2.461,2.866,5.6,4.774a23.553,23.553,0,0,1,3.845,2.856C196.015,324.223,193.692,325.765,191.34,325.36Z" transform="translate(-102.193 -103.53)" fill="#534da0"/>
      <path id="Path_739" data-name="Path 739" d="M136.87,153.345l3.311-3.953L160.4,167.469s9.883-13.145,12.591-17.246c2.965-4.507,5.683-8.371,10.041-9.122.988.623-.336,16.8-.86,17.217-6.1,4.566-17.978,19.292-21.743,20.053C156.063,179.259,136.87,153.345,136.87,153.345Z" transform="translate(-101.725 -101.518)" fill="#f3d4b3"/>
      <path id="Path_740" data-name="Path 740" d="M184.909,140.38s-4.131.059-5.93,1.522-10.249,14.9-10.249,14.9a5.93,5.93,0,0,0,2.234,4.665,12.364,12.364,0,0,0,6.118,2.649s4.26-4.24,6.661-6.167c1.492-1.206,1.641,1.769,1.641,1.769l7.511-7.333Z" transform="translate(-102.097 -101.509)" fill="#6b65ae"/>
      <path id="Path_741" data-name="Path 741" d="M145.208,154s-4.754-3.805-5.07-4.853-.4-2.155-.791-3.173a5.93,5.93,0,0,0-3.3-3.281c-1.186-.494-.6-.9-1.878-.652-1.927.376-2.846,2.263-3.617,3.736-3.281,6.3,5.712,7.482,6.029,7.5.652,0,4,3.815,4,3.815" transform="translate(-101.643 -101.528)" fill="#f9b8b0"/>
      <path id="Path_742" data-name="Path 742" d="M130.2,150.923l3.261,2.174a.889.889,0,0,0,1.265-.287l7.136-11.979-4.24-2.392L130,149.677a.889.889,0,0,0,.2,1.245Z" transform="translate(-101.643 -101.487)" fill="#8082be"/>
      <path id="Path_743" data-name="Path 743" d="M118.423,125.256l1.117.771,4.527-6.6-1.117-.761a3.785,3.785,0,0,0-5.149,1.324h0a3.746,3.746,0,0,0,.623,5.268Z" transform="translate(-101.493 -101.25)" fill="#c5c3e2"/>
      <path id="Path_744" data-name="Path 744" d="M114.25,133.23l20.834,3.163,4.764-6.938-10.516-18.2Z" transform="translate(-101.461 -101.169)" fill="#c5c3e2"/>
      <path id="Path_745" data-name="Path 745" d="M115.59,133.694l19.51,2.876L137,133.8l-16.416-7.373Z" transform="translate(-101.477 -101.346)" fill="#bdbadd"/>
      <path id="Path_746" data-name="Path 746" d="M143.988,141.717h0a2.639,2.639,0,0,0,3.6-.929l.85-1.235a2.629,2.629,0,0,0-.435-3.686h0a2.639,2.639,0,0,0-3.6.939l-.85,1.226A2.639,2.639,0,0,0,143.988,141.717Z" transform="translate(-101.797 -101.452)" fill="#c5c3e2"/>
      <path id="Path_747" data-name="Path 747" d="M144.4,136.817l-.85,1.226a2.471,2.471,0,1,0,4.042,2.757l.84-1.235a1.73,1.73,0,0,0,.178-.287,2.609,2.609,0,0,1-3.4.662,2.57,2.57,0,0,1-.6-3.39,1.373,1.373,0,0,0-.208.267Z" transform="translate(-101.796 -101.464)" fill="#bdbadd"/>
      <path id="Path_748" data-name="Path 748" d="M113.553,133.9h0a1.562,1.562,0,0,0,2.115-.553l14.291-20.824a1.542,1.542,0,0,0-.257-2.164h0a1.562,1.562,0,0,0-2.115.544L113.3,131.745a1.552,1.552,0,0,0,.257,2.155Z" transform="translate(-101.446 -101.156)" fill="#a7a4d1"/>
      <path id="Path_749" data-name="Path 749" d="M130.068,110.76l-11.86,17.345a1.562,1.562,0,0,1-2.115.553,1.255,1.255,0,0,1-.366-.4l-2.431,3.489a1.443,1.443,0,1,0,2.372,1.611l14.291-20.824A1.631,1.631,0,0,0,130.068,110.76Z" transform="translate(-101.446 -101.163)" fill="#8082be"/>
      <path id="Path_750" data-name="Path 750" d="M137.169,140.251l1.354.919c1.977,1.354,4.863.613,6.424-1.67l1.344-1.977c1.562-2.283,1.216-5.228-.771-6.582l-1.354-.919c-1.977-1.354-4.872-.613-6.434,1.67l-1.334,1.977C134.837,135.922,135.183,138.887,137.169,140.251Z" transform="translate(-101.708 -101.38)" fill="#a7a4d1"/>
      <path id="Path_751" data-name="Path 751" d="M136.453,133.61l-1.977,2.965a1.492,1.492,0,0,0,.247,2.085L141,142.94a1.5,1.5,0,0,0,2.036-.534l1.977-2.965a1.5,1.5,0,0,1-2.036.534L136.7,135.7a1.482,1.482,0,0,1-.247-2.085Z" transform="translate(-101.694 -101.43)" fill="#8082be"/>
      <path id="Path_752" data-name="Path 752" d="M130.909,147.922a6.533,6.533,0,0,1,1.146-4.892,9.418,9.418,0,0,1,1.166-1.265,1.65,1.65,0,0,1,.7-.465,2.214,2.214,0,0,1,1.522.346,2.837,2.837,0,0,1,1.255,1.245,1.65,1.65,0,0,1-.919,1.977c-.069,0-.148.089-.168.168a.471.471,0,0,0,.119.385,2.807,2.807,0,0,1,.474,1.621.988.988,0,0,1-1.117.84c-.247,0-.573-.138-.652.049a.4.4,0,0,0,0,.217,1.789,1.789,0,0,1-.385,1.374.5.5,0,0,1-.3.188.87.87,0,0,1-.316,0,4.487,4.487,0,0,1-1.117-.494" transform="translate(-101.655 -101.52)" fill="#f9b8b0"/>
      <path id="Path_753" data-name="Path 753" d="M140.173,149.412c-.109-.7-.356-1.848-.385-2.56a5.821,5.821,0,0,0-2.748-4.784.751.751,0,0,0-.445-.128.514.514,0,0,0-.366.435,1.187,1.187,0,0,0,.089.583c.188.6,1.048,1.739.781,2.362a7.185,7.185,0,0,0-.682,2.965c0,.9.455,2.372,1.532,2.52" transform="translate(-101.718 -101.527)" fill="#f9b8b0"/>
      <line id="Line_84" data-name="Line 84" x2="4.19" y2="9.883" transform="translate(14.301 0)" fill="none" stroke="#c5c3e2" stroke-linecap="round" stroke-linejoin="round" stroke-width="1.25"/>
      <line id="Line_85" data-name="Line 85" x2="8.589" y2="6.444" transform="translate(5.545 8.786)" fill="none" stroke="#c5c3e2" stroke-linecap="round" stroke-linejoin="round" stroke-width="1.25"/>
      <line id="Line_86" data-name="Line 86" x2="10.684" y2="1.048" transform="translate(0 20.765)" fill="none" stroke="#c5c3e2" stroke-linecap="round" stroke-linejoin="round" stroke-width="1.25"/>
      <path id="Path_754" data-name="Path 754" d="M186,190.112c-14.331,16.8-14.657,113.895-8.549,114.982,10.259,1.828,12.058,3.459,12.611,2.411s7.778-65.417,9.4-79.827a.336.336,0,1,1,.672,0l9.686,77.88a2.105,2.105,0,0,0,2.57,1.779c3.8-.889,11.405-1.789,12.423-2.57S224,199.511,210.821,187.552C204.882,182.156,191.174,184.054,186,190.112Z" transform="translate(-102.155 -102.023)" fill="#8082be"/>
      <path id="Path_755" data-name="Path 755" d="M250.672,164.888c4.013-2.659,1.314-5.159-2.55-7.185-1.048-.544-14.074,9.043-20.814,6.4-5.07-1.977-11.277-23.572-15.872-25.281-5.693-2.115-8.075,5.742-13.352,5.742-7.2,0-12.492-9.4-18.907-4.23-3.607,2.916-12.562,15.378-18.264,22.633-2.362,2.965-11.277-7.837-16.861-12.206-2.184-1.71-5.792,4.764-5.831,5.278-.158,2.3,15.873,21.061,19.223,22.731,12.769,6.345,18.225-18.917,23.008-15.744,2.886,1.907-6.3,29.551-1.354,34,5.386,4.843,33.672-4.111,37.2-3.548,5.139.83-6.365-31.122-1.9-23.473C224.975,188.143,242.765,170.116,250.672,164.888Z" transform="translate(-101.741 -101.487)" fill="#d9363e"/>
      <path id="Path_756" data-name="Path 756" d="M198,145.015h-5.258l-6.592-4.942V119.16s8.687.138,8.687.692S198,145.015,198,145.015Z" transform="translate(-102.301 -101.261)" fill="#dca857"/>
      <path id="Path_757" data-name="Path 757" d="M190.26,118.751c0,7.017,5.317,14.479,8.332,14.509,5.93.059,8.381-6.8,8.381-13.837s-3.736-11.613-8.381-11.613S190.26,111.724,190.26,118.751Z" transform="translate(-102.348 -101.129)" fill="#f3d4b3"/>
      <path id="Path_758" data-name="Path 758" d="M199.479,108.475S193.46,121.887,188,122.717c-2.58.385,2.965,9.261,1.265,13.412s2.827,8.707,2.441,8.707-13.491-4.418-13.491-4.418,4.754-9.646,4.882-14.084,3.113-23.206,15.368-22.465,9.043,22.03,9.557,23.829,5.139,14.1,5.139,14.1l-13.678,2.451,1.977-11.692a13.146,13.146,0,0,0,1.235-.791c2.51-2.273,5.357-8.351,3.034-13.066a92.551,92.551,0,0,0-6.256-10.229Z" transform="translate(-102.208 -101.083)" fill="#e8b65d"/>
      <path id="Path_759" data-name="Path 759" d="M201.865,118.929s-1.433-.425-2.125.474" transform="translate(-102.459 -101.258)" fill="none" stroke="#ed2e2e" stroke-miterlimit="10" stroke-width="0.37"/>
      <circle id="Ellipse_52" data-name="Ellipse 52" cx="2.945" cy="2.945" r="2.945" transform="translate(99.396 15.685)" fill="none" stroke="#ed2e2e" stroke-miterlimit="10" stroke-width="0.55"/>
      <circle id="Ellipse_53" data-name="Ellipse 53" cx="2.945" cy="2.945" r="2.945" transform="translate(91.756 16.307)" fill="none" stroke="#ed2e2e" stroke-miterlimit="10" stroke-width="0.55"/>
      <line id="Line_87" data-name="Line 87" x1="1.463" transform="translate(90.293 18.63)" fill="none" stroke="#ed2e2e" stroke-miterlimit="10" stroke-width="0.37"/>
    </g>
    <g id="convert" transform="translate(128.156 214.336)" clip-path="url(#clip-path)">
      <rect id="Rectangle_153" data-name="Rectangle 153" width="147.695" height="97.517" rx="14.22" fill="#fcb64e"/>
      <path id="Path_760" data-name="Path 760" d="M272.055,233.55a12.94,12.94,0,0,0-12.94-12.94H137.3a12.931,12.931,0,0,0-12.94,12.94l67.013,54.291a10.793,10.793,0,0,0,13.586,0Z" transform="translate(-124.36 -220.61)" fill="#fed716"/>
      <path id="Path_761" data-name="Path 761" d="M132.978,308.063V236.436a12.94,12.94,0,0,1,12.94-12.94H267.159a12.822,12.822,0,0,0-8.045-2.876H137.3a12.931,12.931,0,0,0-12.94,12.94V305.2a12.94,12.94,0,0,0,12.94,12.94h.573a12.886,12.886,0,0,1-4.9-10.074Z" transform="translate(-124.36 -220.611)" opacity="0.7" fill="url(#radial-gradient)"/>
      <path id="Path_762" data-name="Path 762" d="M190.045,278.4,124.36,220.61h147.7L206.37,278.4A12.358,12.358,0,0,1,190.045,278.4Z" transform="translate(-124.36 -220.61)" fill="url(#linear-gradient)"/>
      <path id="Path_763" data-name="Path 763" d="M190.045,278.4,124.36,220.61h147.7L206.37,278.4A12.358,12.358,0,0,1,190.045,278.4Z" transform="translate(-124.36 -220.61)" fill="#fedd00" opacity="0.7"/>
    </g>
  </g>
</svg>
