<svg xmlns="http://www.w3.org/2000/svg" width="538.914" height="450.352" viewBox="0 0 538.914 450.352">
  <g id="illustration_1" data-name="illustration 1" transform="translate(-0.002 -0.001)">
    <g id="Layer_1" data-name="Layer 1">
      <path id="Path_599" data-name="Path 599" d="M122.116,425.4c-67.863.236-87.2-.224-104.393-16.5-40.819-38.462-11.43-152.011,91.4-181.341,24.6-7.07,43.176-7.07,62.454-35.151,15.13-22.036,21.211-48.667,28.517-73.519C215.75,65.612,249.522-5.986,321.8.4c38.4,3.394,64,28.953,83.995,61.276a301.5,301.5,0,0,1,39.04,98.784c9.427,46.6,50.34,77.832,72.859,118.686,21,38.073,38.05,105.665-8.249,134.783C483.136,430.427,479.99,424.217,122.116,425.4Z" fill="#eaeaea"/>
      <path id="Path_600" data-name="Path 600" d="M118.922,344.841s-18.359,4.431-29.813,1.178S67.6,333.234,65.082,323.006s8.579-13.976,15.036-4.714,10.841,24.121,38.191,22.837Z" fill="#f3f9fd"/>
      <path id="Path_601" data-name="Path 601" d="M117.638,341.377a7.789,7.789,0,0,1,3.712-2.2c1.885-.247,3.453-.189,3.453.448s-3.087.742-3.535,1.438c3.076.566,5.586-1.178,6.528-.189s-1.709,5.574-10.947,4.2" fill="#e9a5b0"/>
      <path id="Path_602" data-name="Path 602" d="M242.24,357.368a26.337,26.337,0,0,0-19.526,5.692.082.082,0,0,1-.141-.059V319h-44.39a.094.094,0,0,0-.071.141,26.349,26.349,0,1,1-41.008,0,.082.082,0,0,0,0-.141H92.691a.094.094,0,0,0-.094.082V432.4a16.191,16.191,0,0,0,16.191,16.179H222.537a.083.083,0,0,0,.083-.083V404.185a.083.083,0,0,1,.141,0c17.3,13.987,43.176,1.32,42.917-20.692a26.514,26.514,0,0,0-23.438-26.125Z" fill="#fcb64e"/>
      <path id="Path_603" data-name="Path 603" d="M57.741,363.554s-4.3,5.892,3.217,30.567c2.911,12.891,7.011,52.143,7.011,52.143l3.535.259s9.427-60.1,4.054-92Z" fill="#dc9c7b"/>
      <path id="Path_604" data-name="Path 604" d="M57.741,317.067c-3.535,6.564-8.084,20.61-5.032,47.748,1.178,24.051,21.812,10.605,24.746-18.465s-2.887-32.417-7.129-34.7C66.944,309.914,60.828,311.328,57.741,317.067Z" fill="#f3f9fd"/>
      <path id="Path_605" data-name="Path 605" d="M67.356,302.679l-.46,9.969,5.633.8L74.7,303.221Z" fill="#d79476"/>
      <path id="Path_606" data-name="Path 606" d="M55.843,358.581s-8.249,8.4-3.806,33.82c1.32,13.151-2.427,53.864-2.427,53.864l4.077-1.178s13.481-41.632,12.008-73.9Z" fill="#dc9c7b"/>
      <path id="Path_607" data-name="Path 607" d="M101.082,361.457s-18.689-3.842-28.152-11.089S57.611,331.8,59,321.368s13.115-9.863,15.72,1.178,1.178,26.408,27.1,35.245Z" fill="#f3f9fd"/>
      <path id="Path_608" data-name="Path 608" d="M101.871,357.768a7.707,7.707,0,0,1,3.712-2.192c1.885-.259,3.453-.189,3.453.436s-3.087.754-3.535,1.438c3.087.566,5.6-1.178,6.54-.189s-1.72,5.621-10.912,4.2" fill="#dc9c7b"/>
      <path id="Path_609" data-name="Path 609" d="M59.685,398.882,65,442.329h9.7s5.633-68.806,1.037-86.894H73.8Z" fill="#64605b"/>
      <path id="Path_610" data-name="Path 610" d="M52.108,355.435c-6.387,13.681-4.3,46.676-4.3,86.894h8.579c8.826-44.413,16.686-74.757,17.416-86.894Z" fill="#6f6864"/>
      <path id="Path_611" data-name="Path 611" d="M282.01,188.765v44.613c-17.959-14.706-45.321-.495-42.917,23.143A26.337,26.337,0,0,0,282.01,274.2v44.625h45c-14.412-16.815-2.687-42.422,18.736-43.459,23.191-1.084,36.176,26.066,21.211,43.459h45V204.862a16.1,16.1,0,0,0-16.026-16.1Z" fill="#fed4a1"/>
      <path id="Path_612" data-name="Path 612" d="M406.765,359.076s17.923-2.2,28.694-7.318,20.032-13.787,20.834-24.286-11.784-12.785-15.614-2.145c-4.148,11.419-6.729,25.571-33.914,28.8Z" fill="#c38358"/>
      <path id="Path_613" data-name="Path 613" d="M397.4,353.6c.943-1.013,3.453.742,6.54.177-.507-.683-3.535-.813-3.535-1.438s1.567-.7,3.453-.436a7.777,7.777,0,0,1,3.712,2.192l.778,3.688C399.118,359.206,396.454,354.6,397.4,353.6Z" fill="#e9a5b0"/>
      <path id="Path_614" data-name="Path 614" d="M412.021,318.351v.436h-45c14.412-16.815,2.687-42.422-18.736-43.459a26.337,26.337,0,0,0-21.27,43.459h-45v44.154c16.191-13.28,40.619-3.1,42.881,17.4,2.616,23.744-24.852,38.168-42.881,23.379v44.613H395.936a16.085,16.085,0,0,0,16.1-16.1Z" fill="#ffe7b6"/>
      <path id="Path_615" data-name="Path 615" d="M459.569,367.03l18.359-2.039s3.665,6.269-6.34,30.072c-4.207,12.514-11.949,49.492-11.949,49.492l-4.2-.778" fill="#e9a5b0"/>
      <path id="Path_616" data-name="Path 616" d="M446.807,318.681c3.771-1.037,8.1.354,11.254,2.675,6.281,4.631,17.487,16.627,27,40.866,8.885,22.613-19.078,19.349-34.173-6.21s-10.77-30.956-7.542-34.727A7.306,7.306,0,0,1,446.807,318.681Z" fill="#f3f9fd"/>
      <path id="Path_617" data-name="Path 617" d="M406.765,365.216s18.724.141,29.46-4.973,16.957-17.923,17.77-28.423-5.267-12.279-8.767-1.52c-3.736,11.5-7.978,27.751-38.5,31.145Z" fill="#dd9d7b"/>
      <path id="Path_618" data-name="Path 618" d="M455.5,443.484s-.177,1.791-4.914,2.863a2.934,2.934,0,0,0-2.239,2.227h11.36s1.426-1.273-.271-4.348Z" fill="#dd9d7b"/>
      <path id="Path_619" data-name="Path 619" d="M485.269,442.435s.66,3.936-2.64,4.56c-2.357.542-2.357,1.579-2.357,1.579h5.892l5.2-3.229a5.208,5.208,0,0,0-2.922-4.5Z" fill="#dd9d7b"/>
      <path id="Path_620" data-name="Path 620" d="M396.938,360.914c.943-1,3.453.754,6.54.189-.507-.7-3.535-.813-3.535-1.449s1.567-.683,3.453-.436a7.754,7.754,0,0,1,3.712,2.2l.778,3.677C398.658,366.476,395.995,361.916,396.938,360.914Z" fill="#dd9d7b"/>
      <path id="Path_621" data-name="Path 621" d="M473.308,390.728s-10.1,41.149-11.854,53.793a45.037,45.037,0,0,1-7.141-.33s-2.109-57.057,5.232-77.16C484.7,379.285,473.308,390.728,473.308,390.728Z" fill="#454f94"/>
      <path id="Path_622" data-name="Path 622" d="M483.018,357.285c6.328,8.084,4.419,24.581,2.769,38.168s4.973,45.886,4.973,45.886-.672-.731-6.352,1.414c-5.892-10.605-10.1-25.229-11.713-38-3.771-29.742-13.151-37.708-13.151-37.708Z" fill="#5b63ac"/>
      <path id="Path_623" data-name="Path 623" d="M451.721,349.743,438.075,341.8l.8-1.049-4.442-2.451s3.771-16.792,12.373-19.62S463.6,336.086,451.721,349.743Z" fill="#f3f9fd"/>
      <path id="Path_624" data-name="Path 624" d="M217.765,154.45s-5.114,24.239-21.706,34.314c-4.973,3.017-7.223,14.942,4.113,11.171,8.59-2.863,20.386-31.922,19.974-45.485Z" fill="#e2a374"/>
      <path id="Path_625" data-name="Path 625" d="M223.987,147.875c-1.3,0-1.791,2.793-4.207,4.454-.13-.79,1.838-2.922,1.414-3.335s-1.5.589-2.581,2a7.247,7.247,0,0,0-1,3.924l1.921,2.981C226.579,152.73,225.283,147.91,223.987,147.875Z" fill="#e9a5b0"/>
      <path id="Path_626" data-name="Path 626" d="M360.42,124.767s-17.051,13.61-14,23.568S356.7,181.966,356.7,181.966l-3.912,1.108s-13.881-29.13-11.7-45.344,10.193-35.446,10.193-35.446S368.22,110.532,360.42,124.767Z" fill="#f3d4b3"/>
      <path id="Path_627" data-name="Path 627" d="M372.663,148.653c.872,10.382,2.581,35.764,2.581,35.764l-3.971-.613S371.8,138.271,372.663,148.653Z" fill="#f3d4b3"/>
      <path id="Path_628" data-name="Path 628" d="M352.477,182.991s.66,2.6-2.769,3.252a2.286,2.286,0,0,0-2.086,2.651h6.128l5.409-3.358s.566-1.921-2.628-3.7Z" fill="#f3f9fd"/>
      <path id="Path_629" data-name="Path 629" d="M354.21,64.976c-2.816-7.07-11.961,1.426-15.9,11.784s-15.92,15.319-27.1,7.648l-1.532,2.522s6.151,8.037,19.1,8.249C345.867,95.26,355.081,67.168,354.21,64.976Z" fill="#e9c19b"/>
      <path id="Path_630" data-name="Path 630" d="M348.553,100.28s-17.676,33.937-14.388,50.223l16.415,30.838,5.833-3.712s-6.693-21.776-6.693-31.9L361.5,113.407Z" fill="#435197"/>
      <path id="Path_631" data-name="Path 631" d="M301.512,81.379c1.178-.742,3.158,1.579,6.281,1.8-.318-.79-3.276-1.685-3.111-2.286s1.685-.283,3.453.424a7.848,7.848,0,0,1,3.052,3.052l-.094,3.771C301.783,87.2,300.346,82.121,301.512,81.379Z" fill="#e9a5b0"/>
      <path id="Path_632" data-name="Path 632" d="M162.758,140.392c8.732,18.63,35.139,20.433,46.193,2.616l14.412,42.233L265.6,170.865c-17.805-11.041-16.05-37.449,2.616-46.2,21.635-10.134,44.142,11.195,35.976,32.995l42.257-14.4-36.8-107.81A16.1,16.1,0,0,0,289.2,25.406L181.388,62.183l14.4,42.233C173.976,96.25,152.6,118.722,162.758,140.392Z" fill="#fdc272"/>
      <path id="Path_633" data-name="Path 633" d="M331.585,51.766s-3.205.212-3.688-4.4c-.448-4.136,5.892-10.275,14.141-5.892,1.5-3.417,6.941-2.675,8.7,4.714C353.09,55.985,344.146,60,344.146,60Z" fill="#925177"/>
      <path id="Path_634" data-name="Path 634" d="M343.581,54.076l4.407,7.471-5.35,4.442-5.7-8.767Z" fill="#e9c19b"/>
      <path id="Path_635" data-name="Path 635" d="M330.442,48.526s1.237,17.746,10.912,12.962c5.338-3.252,2.227-7.447,2.227-7.447,3.323-1.438.212-7.2-2.981-3.382l-2.357-4.478S335.721,48.384,330.442,48.526Z" fill="#f3d4b3"/>
      <path id="Path_636" data-name="Path 636" d="M354.292,115.929S335.037,72.188,342.756,64.08s17.829,4.266,22.8,22.283l2.251,16.957Z" fill="#f3f9fd"/>
      <path id="Path_637" data-name="Path 637" d="M371.343,183.592s-.189,1.862-5.126,2.981a3.04,3.04,0,0,0-2.357,2.357h11.784a5.055,5.055,0,0,0-.283-4.525Z" fill="#f3f9fd"/>
      <path id="Path_638" data-name="Path 638" d="M303.563,92.314c.943-1.013,3.453.754,6.528.189-.495-.7-3.535-.825-3.535-1.449s1.567-.7,3.453-.436a7.707,7.707,0,0,1,3.712,2.192l.79,3.688C305.271,97.923,302.62,93.316,303.563,92.314Z" fill="#f3d4b3"/>
      <path id="Path_639" data-name="Path 639" d="M348.105,100.28l18.512-6.01s4.278,4.6,6.175,23.568,3.182,62.7,3.182,62.7l-7.07-.259Z" fill="#5368ab"/>
      <path id="Path_640" data-name="Path 640" d="M350.545,63.35c-5.208-3.017-9.227,1.52-11.277,9l12.467,7.53C354.4,72.576,354.3,65.53,350.545,63.35Z" fill="#f3f9fd"/>
      <path id="Path_641" data-name="Path 641" d="M339.786,72.47a41.643,41.643,0,0,0-1.355,6.316c-1.249,10.983-12,18.666-24.746,14.023l-.919,3c7.212,5.468,26.985,7.07,36.035-17.676Z" fill="#f3d4b3"/>
      <path id="Path_642" data-name="Path 642" d="M349.449,186.314l.2.7h3.783l3.535-2.215a1.744,1.744,0,0,1,.566-2.357c2.156,1.591,1.709,3.123,1.709,3.123l-5.421,3.37h-6.2a2.262,2.262,0,0,1,1.826-2.616Z" fill="#65456b"/>
      <path id="Path_643" data-name="Path 643" d="M366.924,186.4l.236.683h6.858a3.064,3.064,0,0,1,1.768-1.956c.954,2.486-.071,3.771-.071,3.771H363.931C364.273,186.915,365.958,186.656,366.924,186.4Z" fill="#65456b"/>
      <path id="Path_644" data-name="Path 644" d="M204.166,224.258H191.888s-9.309,6.74-1.049,35.128c7.318,25.1-5.4,53.993-5.4,53.993l3.665,1.98S215.243,278.1,204.166,224.258Z" fill="#e2a374"/>
      <path id="Path_645" data-name="Path 645" d="M192.936,234.5s-9.946-40.065-.566-46.2,16.969,10.264,17.676,28.976l.577,16.5Z" fill="#f3f9fd"/>
      <path id="Path_646" data-name="Path 646" d="M226.155,156.23s-6.281,25.323-23.768,34.951c-1.933,1.061-4.926,1.862-5.786,3.9-2.286,5.432,3.123,10.5,7.412,8.249,7.989-4.254,25.029-33.513,24.628-47.065Z" fill="#f0ac75"/>
      <path id="Path_647" data-name="Path 647" d="M210.247,224.258H194.68s-5.2,8.555,2.357,37.461c9.085,34.762,7.907,53.64,7.907,53.64h3.629S217.647,256.781,210.247,224.258Z" fill="#f0ac75"/>
      <path id="Path_648" data-name="Path 648" d="M208.762,313.921s.177,1.779,4.914,2.852a2.958,2.958,0,0,1,2.239,2.239h-11.36s-1.284-1.591.412-4.714Z" fill="#d9353d"/>
      <path id="Path_649" data-name="Path 649" d="M190.214,313.343s-.636,2.5,2.663,3.123a2.2,2.2,0,0,1,1.991,2.545h-5.892l-5.15-3.205s-.542-1.838,2.522-3.535Z" fill="#f27699"/>
      <path id="Path_650" data-name="Path 650" d="M232.53,149.442c-1.3,0-1.791,2.793-4.207,4.466-.13-.79,1.827-2.922,1.414-3.335s-1.5.577-2.581,1.991a7.259,7.259,0,0,0-1,3.924l1.921,2.97C235.111,154.368,233.814,149.489,232.53,149.442Z" fill="#f0ac75"/>
      <path id="Path_651" data-name="Path 651" d="M190.78,224.258s-6.281,8.484-3.229,26.5,5.385,25.158,5.385,25.158h20.221s2.746-34.68-2.911-51.66Z" fill="#d9353d"/>
      <path id="Path_652" data-name="Path 652" d="M193.137,316.537l-.2.672h-3.629l-3.358-2.121a1.673,1.673,0,0,0-.542-2.3c-2.062,1.532-1.579,3.017-1.579,3.017l5.2,3.229h5.892A2.168,2.168,0,0,0,193.137,316.537Z" fill="#65456b"/>
      <path id="Path_653" data-name="Path 653" d="M213.676,316.772l-.672-.165-.236.66h-6.552a2.934,2.934,0,0,0-1.7-1.874c-.919,2.357.071,3.618.071,3.618h11.36a2.934,2.934,0,0,0-2.274-2.239Z" fill="#65456b"/>
      <path id="Path_654" data-name="Path 654" d="M48.314,449.246l16.014.059s.577-1.284,0-1.968-2.651-.483-3.264-.8-6.41-3.3-6.41-3.3-1.426,1.991-2.5,2.357-2.958-.86-2.958-.86Z" fill="#6f6864"/>
      <path id="Path_655" data-name="Path 655" d="M66.131,449.246l16.026.059s.566-1.284,0-1.968-2.651-.483-3.264-.8-6.41-3.3-6.41-3.3-1.438,1.991-2.51,2.357-2.946-.86-2.946-.86Z" fill="#6f6864"/>
      <path id="Path_656" data-name="Path 656" d="M460.747,448.881a.519.519,0,0,1-.507.625h-15.39s-.577-1.273,0-1.956,2.651-.483,3.264-.813l6.022-3.1a.518.518,0,0,1,.648.141,6.54,6.54,0,0,0,2.239,2,3.617,3.617,0,0,0,2.357-.507.518.518,0,0,1,.754.377Z" fill="#6f6864"/>
      <path id="Path_657" data-name="Path 657" d="M64.5,302.219c-2.687-5.892-2.545-10.9,2.2-12.962s9.345-1.426,11.784,4.513,1.249,14.141-.636,15.319C73.543,311.882,66.19,305.9,64.5,302.219Z" fill="#dc9c7b"/>
      <path id="Path_658" data-name="Path 658" d="M65.9,305.271l.884-.518s-2.663-3.193-1.791-4.278c1.261-1.555,2.262-.648,2.922-.224,3.087,1.968.672,6.7,2.18,7.942,3.535,2.875,7.07,1.98,8.5.318,2.71-3.229-2.274-1.638-1.9-3.535.283-1.461,4.018.271,3.535-1.65-.412-1.662-4.631,2.2-6.658,1.273-1.332-.613-3.323-3.111-3.853-8.4-.589-5.892,6.022-2.427,7.506-3.724s.33-2.357-.448-2.922c-1.308-1-9.427-4.219-13.351.9C57.517,298.036,65.9,305.271,65.9,305.271Z" fill="#171743"/>
      <path id="Path_659" data-name="Path 659" d="M190.686,180.587l8.579,2.274.4,6.375s-7.235,1.355-7.259,1.178S190.686,180.587,190.686,180.587Z" fill="#dd9f72"/>
      <path id="Path_660" data-name="Path 660" d="M188.612,180.116c-2.863-4.23.625-10.382,3.535-11.866s6.811-1.025,9.25,3.453,1.862,11.242,1.084,12.055C200.172,186.243,190.226,182.519,188.612,180.116Z" fill="#f0ac75"/>
      <path id="Path_661" data-name="Path 661" d="M199.146,169.074s-5.35-.247-6.269,4.2c-.66,3.241.625,4.266-.566,5.373-.978.919-2.8-2.286-3.912.448-.589,1.438,3.535,1.626,2.863,2.734-1,1.826-5.951,2.239-5.986.189s-2.168-4.278-2-5.774,1.084-2.522-.6-3.3c-1.108-.507-.919-4.089.412-4.949,1.98-1.284,4.584-1.049,4.714,0s5.562-4.454,11.277.79" fill="#d68045"/>
      <path id="Path_662" data-name="Path 662" d="M192.665,178.006l4.714-1.838,6.033-2.463.365,2.357a.306.306,0,0,1-.141.306c-.342.236-1.108.707-1.438.377l-.577-2.357" fill="none" stroke="#2d367b" stroke-miterlimit="10" stroke-width="0.224"/>
      <path id="Path_663" data-name="Path 663" d="M197.532,176.109l.884,2.015a.389.389,0,0,0,.471.177,21.59,21.59,0,0,0,2.486-.907c.342-.236-.625-2.451-.625-2.451" fill="none" stroke="#2d367b" stroke-miterlimit="10" stroke-width="0.224"/>
      <path id="Path_664" data-name="Path 664" d="M437.992,322.605l3.547,5.821,4.631-9.18-1.709-4.985-3.076,4.973Z" fill="#dd9d7b"/>
      <path id="Path_665" data-name="Path 665" d="M440.691,319.129l5.479.118-2.062-6.293Z" fill="#c38358"/>
      <path id="Path_666" data-name="Path 666" d="M428.8,309.078c1.544-5.456,6.976-8.614,11.383-7.306s7.07,6.434,5.538,11.878-8.025,11.56-11.489,10.488C430.569,323.018,427.269,314.533,428.8,309.078Z" fill="#dd9d7b"/>
      <path id="Path_667" data-name="Path 667" d="M439.324,313.32s-1.732,4.171-3.3,4.949-6.67-.9-6.022,1.025c.471,1.39,2.522-.071,2.9.719.483,1.013-4.372,1.909.412,4.171,1.1.518,2.687.589,4.961-.837s2.569-4.961,2.675-5.173-.613-4.937-.613-4.937Z" fill="#171845"/>
      <path id="Path_668" data-name="Path 668" d="M492.375,445.9l-9.238,4.242a.554.554,0,0,1-.2,0l-4.36.212a2.109,2.109,0,0,1-.295-1.685c.8-2.274,3.04-1.532,3.429-2.062s2.357-2.592,3.087-3.394a.518.518,0,0,1,.636-.118,6.434,6.434,0,0,0,2.769.837,3.347,3.347,0,0,0,1.779-1.343.554.554,0,0,1,.884,0l1.7,2.486a.566.566,0,0,1-.188.825Z" fill="#6f6864"/>
    </g>
  </g>
</svg>
