<svg xmlns="http://www.w3.org/2000/svg" width="18" height="18" viewBox="0 0 18 18">
  <g id="instagram_icon" data-name="instagram icon" transform="translate(0 0)">
    <path id="Union_1" data-name="Union 1" d="M6.176,18A6.192,6.192,0,0,1,0,11.824V6.176A6.192,6.192,0,0,1,6.176,0h5.648A6.192,6.192,0,0,1,18,6.176v5.648A6.192,6.192,0,0,1,11.824,18ZM4.236,9A4.764,4.764,0,1,0,9,4.236,4.769,4.769,0,0,0,4.236,9Zm9.3-5.278a.529.529,0,1,0,.373-.154A.532.532,0,0,0,13.531,3.722ZM5.291,9A3.709,3.709,0,1,1,9,12.709,3.713,3.713,0,0,1,5.291,9Z" transform="translate(0 0)" fill="#fff"/>
  </g>
</svg>
