<svg id="Layer_1" data-name="Layer 1" xmlns="http://www.w3.org/2000/svg" width="457.961" height="353.302" viewBox="0 0 457.961 353.302">
  <path id="Path_494" data-name="Path 494" d="M454.241,211.435c-7.922-22.1-20.4-28.818-32.266-42.986-14.5-17.312-24.272-29.892-20.511-52.119,6.15-36.371,8.82-127.091-87.512-115.232-34.479,4.25-61.789,30.7-81.627,57.107-16.887,22.451-47.26,24.448-71.708,29.668-30.029,6.415-60.627,16.157-88.418,30.4C14.963,147.585-2.124,189.754.209,243.709c.706,16.3,3.007,41.984,30.55,72.029,37.165,40.549,91.169,45.977,156.174,27.359,14.874-4.266,28.938-10.953,43.58-15.989A205.612,205.612,0,0,1,277.548,316.9c37.333-3.608,76.03,2.919,111.848-8.227a118.03,118.03,0,0,0,50.011-31.031C456.526,259.73,462.612,234.753,454.241,211.435Z" transform="translate(-0.003 -0.037)" fill="#eaeaea"/>
  <path id="Path_495" data-name="Path 495" d="M35.91,365.032c0,5.332,67.619,9.622,151.042,9.622s151.026-4.322,151.026-9.622-67.619-9.622-151.026-9.622S35.91,359.7,35.91,365.032Z" transform="translate(-7.119 -70.459)" fill="#cfcce6"/>
  <path id="Path_496" data-name="Path 496" d="M131.9,388.308c0,3.336-17.159,6.046-38.336,6.046s-38.344-2.678-38.344-6.046,17.167-6.038,38.344-6.038S131.9,384.972,131.9,388.308Z" transform="translate(-10.945 -75.782)" fill="#cfcce6"/>
  <rect id="Rectangle_91" data-name="Rectangle 91" width="66.937" height="18.009" transform="translate(198.54 266.781)" fill="#4d4e4e"/>
  <rect id="Rectangle_92" data-name="Rectangle 92" width="232.043" height="166.942" rx="15.65" transform="translate(116.336 105.716)" fill="#4d4e4e"/>
  <rect id="Rectangle_93" data-name="Rectangle 93" width="218.38" height="144.836" rx="9.61" transform="translate(122.823 111.802)" fill="#d3d3d3"/>
  <path id="Path_497" data-name="Path 497" d="M221.512,353.25H326.425a9.782,9.782,0,0,1,9.782,9.782v1.6H211.73v-1.6a9.782,9.782,0,0,1,9.782-9.782Z" transform="translate(-41.96 -70.031)" fill="#4d4e4e"/>
  <g id="Group_106" data-name="Group 106" transform="translate(175.062 121.809)" opacity="0.35">
    <rect id="Rectangle_94" data-name="Rectangle 94" width="152.798" height="102.707" rx="8.35" fill="#fff"/>
  </g>
  <g id="Group_111" data-name="Group 111" transform="translate(174.974 121.849)" opacity="0.25">
    <rect id="Rectangle_95" data-name="Rectangle 95" width="6.655" height="16.71" transform="translate(14.521 74.988)" fill="#faa819"/>
    <rect id="Rectangle_96" data-name="Rectangle 96" width="6.655" height="31.376" transform="translate(29.516 60.314)" fill="#b2add6"/>
    <rect id="Rectangle_97" data-name="Rectangle 97" width="6.655" height="28.136" transform="translate(44.518 63.562)" fill="#faa819"/>
    <rect id="Rectangle_98" data-name="Rectangle 98" width="6.655" height="44.021" transform="translate(59.512 47.677)" fill="#b2add6"/>
    <g id="Group_107" data-name="Group 107" transform="translate(29.516 60.314)" opacity="0.15">
      <rect id="Rectangle_99" data-name="Rectangle 99" width="3.055" height="31.376" fill="#010101" opacity="0.26"/>
    </g>
    <g id="Group_108" data-name="Group 108" transform="translate(14.521 74.988)" opacity="0.15">
      <rect id="Rectangle_100" data-name="Rectangle 100" width="3.055" height="16.71" fill="#010101" opacity="0.26"/>
    </g>
    <g id="Group_109" data-name="Group 109" transform="translate(59.512 47.677)" opacity="0.62">
      <rect id="Rectangle_101" data-name="Rectangle 101" width="3.055" height="44.021" fill="#010101" opacity="0.26"/>
    </g>
    <g id="Group_110" data-name="Group 110" transform="translate(44.518 63.562)" opacity="0.15">
      <rect id="Rectangle_102" data-name="Rectangle 102" width="3.055" height="28.136" fill="#010101" opacity="0.26"/>
    </g>
    <path id="Path_498" data-name="Path 498" d="M290.408,256.415H230.84V192.99h.914v62.519h58.654Z" transform="translate(-220.721 -160.123)" fill="#d6dcdb"/>
    <path id="Path_499" data-name="Path 499" d="M238.329,228.61l-.609-.682,15.58-13.984,14.433,3.135,15.628-17.4.682.6-15.981,17.793-14.5-3.151Z" transform="translate(-222.084 -161.448)" fill="#d6dcdb"/>
    <path id="Path_500" data-name="Path 500" d="M295.922,202.219l-4.4-4.226,5.685-1.523Z" transform="translate(-232.745 -160.812)" fill="#d6dcdb"/>
    <rect id="Rectangle_103" data-name="Rectangle 103" width="4.57" height="4.57" transform="translate(75.332 73.801)" fill="#b2add6"/>
    <rect id="Rectangle_104" data-name="Rectangle 104" width="4.57" height="4.57" transform="translate(75.332 81.811)" fill="#faa819"/>
    <rect id="Rectangle_105" data-name="Rectangle 105" width="14.489" height="2.598" transform="translate(81.162 83.784)" fill="#f0efef"/>
    <rect id="Rectangle_106" data-name="Rectangle 106" width="14.489" height="2.598" transform="translate(81.162 75.773)" fill="#f0efef"/>
    <rect id="Rectangle_107" data-name="Rectangle 107" width="4.57" height="4.57" transform="translate(102.218 73.801)" fill="#b2add6"/>
    <rect id="Rectangle_108" data-name="Rectangle 108" width="4.57" height="4.57" transform="translate(102.218 81.811)" fill="#faa819"/>
    <rect id="Rectangle_109" data-name="Rectangle 109" width="14.489" height="2.598" transform="translate(108.047 83.784)" fill="#f0efef"/>
    <rect id="Rectangle_110" data-name="Rectangle 110" width="14.489" height="2.598" transform="translate(108.047 75.773)" fill="#f0efef"/>
    <rect id="Rectangle_111" data-name="Rectangle 111" width="4.57" height="4.57" transform="translate(126.417 73.801)" fill="#b2add6"/>
    <rect id="Rectangle_112" data-name="Rectangle 112" width="4.57" height="4.57" transform="translate(126.417 81.811)" fill="#faa819"/>
    <rect id="Rectangle_113" data-name="Rectangle 113" width="9.534" height="2.598" transform="translate(132.247 83.784)" fill="#f0efef"/>
    <rect id="Rectangle_114" data-name="Rectangle 114" width="9.534" height="2.598" transform="translate(132.247 75.773)" fill="#f0efef"/>
    <rect id="Rectangle_115" data-name="Rectangle 115" width="65.598" height="1.195" transform="translate(76.19 30.125)" fill="#f0efef"/>
    <rect id="Rectangle_116" data-name="Rectangle 116" width="131.661" height="2.726" transform="translate(10.127 15.491)" fill="#f0efef"/>
    <rect id="Rectangle_117" data-name="Rectangle 117" width="65.791" height="1.195" transform="translate(75.99 33.837)" fill="#f0efef"/>
    <rect id="Rectangle_118" data-name="Rectangle 118" width="65.791" height="1.195" transform="translate(75.99 26.42)" fill="#f0efef"/>
    <rect id="Rectangle_119" data-name="Rectangle 119" width="65.791" height="1.195" transform="translate(75.99 37.542)" fill="#f0efef"/>
    <rect id="Rectangle_120" data-name="Rectangle 120" width="65.791" height="1.195" transform="translate(75.99 41.254)" fill="#f0efef"/>
    <rect id="Rectangle_121" data-name="Rectangle 121" width="65.791" height="1.195" transform="translate(75.99 44.967)" fill="#f0efef"/>
    <rect id="Rectangle_122" data-name="Rectangle 122" width="65.791" height="1.195" transform="translate(75.99 48.671)" fill="#f0efef"/>
    <rect id="Rectangle_123" data-name="Rectangle 123" width="65.791" height="1.195" transform="translate(75.99 52.384)" fill="#f0efef"/>
    <rect id="Rectangle_124" data-name="Rectangle 124" width="65.791" height="1.195" transform="translate(75.99 56.088)" fill="#f0efef"/>
    <rect id="Rectangle_125" data-name="Rectangle 125" width="57.74" height="1.195" transform="translate(84.048 59.801)" fill="#f0efef"/>
    <path id="Path_501" data-name="Path 501" d="M364.322,152H224.915a6.7,6.7,0,0,0-6.7,6.7v5.861h152.8v-5.9A6.7,6.7,0,0,0,364.322,152Z" transform="translate(-218.22 -152)" fill="#7677b8"/>
    <path id="Path_502" data-name="Path 502" d="M383.315,159.584a1.932,1.932,0,1,1-1.932-1.924,1.932,1.932,0,0,1,1.932,1.924Z" transform="translate(-250.17 -153.122)" fill="#d1cee8"/>
    <circle id="Ellipse_42" data-name="Ellipse 42" cx="1.932" cy="1.932" r="1.932" transform="translate(137.146 4.53)" fill="#d1cee8"/>
    <circle id="Ellipse_43" data-name="Ellipse 43" cx="1.932" cy="1.932" r="1.932" transform="translate(145.02 4.53)" fill="#d1cee8"/>
  </g>
  <rect id="Rectangle_126" data-name="Rectangle 126" width="152.798" height="102.707" rx="8.35" transform="translate(134.385 144.525)" fill="#c6c2e1" opacity="0.55"/>
  <rect id="Rectangle_127" data-name="Rectangle 127" width="152.798" height="102.707" rx="8.35" transform="translate(137.48 140.524)" fill="#fff"/>
  <rect id="Rectangle_128" data-name="Rectangle 128" width="4.57" height="4.57" transform="translate(212.821 214.373)" fill="#b2add6"/>
  <rect id="Rectangle_129" data-name="Rectangle 129" width="4.57" height="4.57" transform="translate(212.821 222.376)" fill="#fcb64e"/>
  <rect id="Rectangle_130" data-name="Rectangle 130" width="14.489" height="2.598" transform="translate(218.65 224.348)" fill="#f0efef"/>
  <rect id="Rectangle_131" data-name="Rectangle 131" width="14.489" height="2.598" transform="translate(218.65 216.346)" fill="#f0efef"/>
  <rect id="Rectangle_132" data-name="Rectangle 132" width="4.57" height="4.57" transform="translate(239.698 214.373)" fill="#b2add6"/>
  <rect id="Rectangle_133" data-name="Rectangle 133" width="4.57" height="4.57" transform="translate(239.698 222.376)" fill="#fcb64e"/>
  <rect id="Rectangle_134" data-name="Rectangle 134" width="14.489" height="2.598" transform="translate(245.528 224.348)" fill="#f0efef"/>
  <rect id="Rectangle_135" data-name="Rectangle 135" width="14.489" height="2.598" transform="translate(245.528 216.346)" fill="#f0efef"/>
  <rect id="Rectangle_136" data-name="Rectangle 136" width="4.57" height="4.57" transform="translate(263.906 214.373)" fill="#b2add6"/>
  <rect id="Rectangle_137" data-name="Rectangle 137" width="4.57" height="4.57" transform="translate(263.906 222.376)" fill="#fcb64e"/>
  <rect id="Rectangle_138" data-name="Rectangle 138" width="9.534" height="2.598" transform="translate(269.735 224.348)" fill="#f0efef"/>
  <rect id="Rectangle_139" data-name="Rectangle 139" width="9.534" height="2.598" transform="translate(269.735 216.346)" fill="#f0efef"/>
  <rect id="Rectangle_140" data-name="Rectangle 140" width="65.598" height="1.195" transform="translate(213.671 170.697)" fill="#f0efef"/>
  <rect id="Rectangle_141" data-name="Rectangle 141" width="131.661" height="2.726" transform="translate(147.607 156.056)" fill="#f0efef"/>
  <rect id="Rectangle_142" data-name="Rectangle 142" width="65.791" height="1.195" transform="translate(213.478 174.402)" fill="#f0efef"/>
  <rect id="Rectangle_143" data-name="Rectangle 143" width="65.791" height="1.195" transform="translate(213.478 166.985)" fill="#f0efef"/>
  <rect id="Rectangle_144" data-name="Rectangle 144" width="65.791" height="1.195" transform="translate(213.478 178.114)" fill="#f0efef"/>
  <rect id="Rectangle_145" data-name="Rectangle 145" width="65.791" height="1.195" transform="translate(213.478 181.827)" fill="#f0efef"/>
  <rect id="Rectangle_146" data-name="Rectangle 146" width="65.791" height="1.195" transform="translate(213.478 185.531)" fill="#f0efef"/>
  <rect id="Rectangle_147" data-name="Rectangle 147" width="65.791" height="1.195" transform="translate(213.478 189.244)" fill="#f0efef"/>
  <rect id="Rectangle_148" data-name="Rectangle 148" width="65.791" height="1.195" transform="translate(213.478 192.948)" fill="#f0efef"/>
  <rect id="Rectangle_149" data-name="Rectangle 149" width="65.791" height="1.195" transform="translate(213.478 196.661)" fill="#f0efef"/>
  <rect id="Rectangle_150" data-name="Rectangle 150" width="57.74" height="1.195" transform="translate(221.529 200.365)" fill="#f0efef"/>
  <path id="Path_503" data-name="Path 503" d="M317.563,175.29H178.155a6.7,6.7,0,0,0-6.7,6.7v5.9H324.242v-5.861a6.7,6.7,0,0,0-6.679-6.735Z" transform="translate(-33.98 -34.766)" fill="#a7a4d1"/>
  <path id="Path_504" data-name="Path 504" d="M336.555,182.932a1.924,1.924,0,1,1-.561-1.366A1.932,1.932,0,0,1,336.555,182.932Z" transform="translate(-65.93 -35.897)" fill="#d1cee8"/>
  <path id="Path_505" data-name="Path 505" d="M346.375,182.932A1.932,1.932,0,1,1,344.442,181,1.932,1.932,0,0,1,346.375,182.932Z" transform="translate(-67.876 -35.897)" fill="#d1cee8"/>
  <path id="Path_506" data-name="Path 506" d="M356.185,182.932A1.932,1.932,0,1,1,354.252,181,1.932,1.932,0,0,1,356.185,182.932Z" transform="translate(-69.82 -35.897)" fill="#d1cee8"/>
  <path id="Path_507" data-name="Path 507" d="M407.111,132H371.325q.361,17.408.585,34.808a13.864,13.864,0,0,1-.641,5.244h-.056c-.473,0-.265.12-.433.97a.344.344,0,0,1,0,.04c-1.443,2.365-4.266,3.656-7.016,4.266,0,.144-2.029,2.951.762,2.654.8-.088,12.412-4.707,12.412-4.707a18.726,18.726,0,0,0-.417-2.125,1.989,1.989,0,0,0-.208-.489,147.06,147.06,0,0,0,6.278-22.331c-.585,9.422-4.009,28.569-4.218,29.227a4.923,4.923,0,0,1-4.073,2.863c-.754.064-6.928.8-4.611,4.987.1.409,15.516-5.46,15.516-5.46l-1.123-2.317-1.211-3.608,2.79.321s3.368-10.921,5.164-15.083a36.082,36.082,0,0,0,2.029-5.2,36.941,36.941,0,0,0,.8-6.519,58.06,58.06,0,0,1,2.189-11.763,1.756,1.756,0,0,1,.321-.69,1.836,1.836,0,0,1,1.235-.425c4.811-.441,7.016.377,10.023-.561,3.969-1.227,4.394-3.031,4.586-3.119A12.485,12.485,0,0,0,407.111,132Z" transform="translate(-71.946 -26.187)" fill="#4d4e4e" opacity="0.2"/>
  <g id="Group_112" data-name="Group 112" transform="translate(321.391 144.429)" opacity="0.2">
    <path id="Path_508" data-name="Path 508" d="M427.818,221.655V180.16c-6.19,8.1-12.316,15.363-18.506,23.462-2.686,3.512-13.2,15.155-6.03,19.829,1.836,1.195,5.019,1.139,6.615,1.251,5.725.409,11.394-1.179,16.959-2.75C427.177,221.863,427.5,221.767,427.818,221.655Z" transform="translate(-400.822 -180.16)" fill="#4d4e4e"/>
  </g>
  <path id="Path_509" data-name="Path 509" d="M429.084,241.974l-3.448.273-.064-.2-2.678.208-.8-2.277a3.464,3.464,0,0,0-3.384-2.149A1.836,1.836,0,0,0,417,240.387c.136.4.529,1.507.8,2.261l-2.822.217.056.2-5.805.449c-.922,0-2.277,1.195-1.981,2.021l.04.12a1.011,1.011,0,0,0,0,.216l5.028,14.185-.128,59.729h5.829l11.041-42.906Zm-9.069-.441a1.932,1.932,0,0,1-1.892-1.2,1.026,1.026,0,0,1,.946-1.4,1.94,1.94,0,0,1,1.9,1.2,1.034,1.034,0,0,1-.954,1.435Z" transform="translate(-80.697 -47.158)" fill="#4d4e4e" opacity="0.2"/>
  <path id="Path_510" data-name="Path 510" d="M159.677,211.717a29.291,29.291,0,0,0-3.448,5.789,5.749,5.749,0,0,1-3.207,2.895c-2.558,1.171-5.292,2.285-7.922,3.32V230.5c5.348-3.207,10.183-6.214,10.272-6.246,4.081,1.6,7.5-1.828,8.6-4.282.489-1.1-.249-1.548-.281-2.069,0-.273.337-1.868.281-2.069-.321-1.435-4.162-.184-3.841-.866a4.883,4.883,0,0,1,1.6-2.405c1.884-1.283,3.328-2.7,3.328-3.207C165.066,208.389,160.126,211.227,159.677,211.717Z" transform="translate(-28.756 -41.476)" fill="#4d4e4e" opacity="0.2"/>
  <path id="Path_511" data-name="Path 511" d="M153.618,215.048c0,.433.682.8.249,1.708-.978,2.021-4.009,4.811-7.633,3.536-.16.056-20.046,11.546-21.569,11.546s-11.963-9.871-15.379-22.091c-.8-2.911-.5-6.343,2.237-7.818a6.455,6.455,0,0,1,3.753,3.344c2.261,4.266,9.029,18.394,10.528,18.923,1.868-1.243,10.969-3.953,18.346-7.08A5.035,5.035,0,0,0,147,214.711a23.614,23.614,0,0,1,3.063-4.771c.393-.409,4.755-2.742,4.755-1.981,0,.449-1.283,1.6-2.951,2.678a4.057,4.057,0,0,0-1.419,1.981c-.281.561,3.127-.473,3.416.706C153.882,213.517,153.6,214.816,153.618,215.048Z" transform="translate(-21.582 -40.045)" fill="#f3d4b3"/>
  <path id="Path_512" data-name="Path 512" d="M110.564,201.48a8.973,8.973,0,0,1,5.934,4.6,20.042,20.042,0,0,1,.8,1.86c1.058,2.694,2.518,5.132,3.576,7.826a16.133,16.133,0,0,1-4.675,2.253,10.071,10.071,0,0,1-4.354.585,2.245,2.245,0,0,1-.73-.16,2.309,2.309,0,0,1-.762-.658q-.69-.8-1.323-1.6a4.379,4.379,0,0,1-.89-1.523,4.635,4.635,0,0,1,.209-2.406" transform="translate(-21.418 -39.956)" fill="#6b65ae"/>
  <g id="Group_113" data-name="Group 113" transform="translate(90.537 168.572)" opacity="0.35">
    <path id="Path_513" data-name="Path 513" d="M114.122,210.583a.89.89,0,0,0-.337-.289.609.609,0,0,0-.714.313,1.6,1.6,0,0,0-.152.8,11.563,11.563,0,0,0,.505,3.207l-.337,5.677h0a10.072,10.072,0,0,0,4.073-.593c.609-.232,1.275-.465,1.94-.738C118.428,215.827,116.247,213.117,114.122,210.583Z" transform="translate(-112.915 -210.27)" fill="#6b65ae"/>
  </g>
  <path id="Path_514" data-name="Path 514" d="M100.029,194.192s-.072,3.552.473,3.785a13.633,13.633,0,0,0,2.3.714v7.361l-9.782-1.475-6.751-3.761s7.016-2.325,7.08-3.023-.385-4.643-.385-4.643" transform="translate(-17.098 -38.305)" fill="#f3d4b3"/>
  <path id="Path_515" data-name="Path 515" d="M84.133,323.849h0c-2.686,12.757-1.411,30.237-2.013,39.859.144.04,3.648.481,3.648.481s8.307-40.4,9.814-48.11a11.033,11.033,0,0,0,.192-1.491c.361-5.821-4.883-6.118-7.842-1.307a19.721,19.721,0,0,0-1.355,2.6c-.168.377-.321.8-.481,1.171h0a38.439,38.439,0,0,0-1.307,4.065v.144c-.12.409-.216.8-.321,1.235v.1A8.245,8.245,0,0,0,84.133,323.849Z" transform="translate(-16.276 -61.446)" fill="#f3d4b3"/>
  <path id="Path_516" data-name="Path 516" d="M100.409,268.3c-.1,1.058-.666,6.07-1.339,11.979-.569,4.971-1.2,10.576-1.7,15.018-.361,3.328-.625,5.982-.738,7.217a17.151,17.151,0,0,1-.3,2.149h0c-1.267,5.813-5.284,6.15-7.722,4.811a4.867,4.867,0,0,1-.93-.633,3.159,3.159,0,0,1-1.042-1.708h0c-.152-1.195-.3-2.822-.449-4.763h0v-.04c-.3-3.777-.545-8.636-.8-13.375-.273-5.813-.441-11.41-.481-14.569v-.521c0-9.694,8.868-15.9,14.433-12.894a1.44,1.44,0,0,1,.192.1l.208.128c.633.425.85,1.868.858,3.528C100.578,265.887,100.49,267.21,100.409,268.3Z" transform="translate(-16.829 -51.594)" fill="#f3d4b3"/>
  <path id="Path_517" data-name="Path 517" d="M86.823,315.274l-.682-2.534h0a40.5,40.5,0,0,1-.8,8.86v.144c-.1.4-.192.8-.321,1.235v.1a6.9,6.9,0,0,0-.289,1.3h0c0,1.155,2.406-3.953,3.007-5.156l.112-.233-.666-2.662Z" transform="translate(-16.793 -62.004)" fill="#f3d4b3"/>
  <path id="Path_518" data-name="Path 518" d="M111.257,326.323h0c-.257,13.327,3.865,29,4.955,38.681.128,0,3.36-.433,3.36-.433s.617-40.837.658-48.912a12.832,12.832,0,0,0-.08-1.54c-.666-5.877-5.428-4.867-7.273.649a24.141,24.141,0,0,0-.8,2.919c-.088.425-.16.8-.233,1.291h0a41.893,41.893,0,0,0-.489,4.362v.16c0,.433-.064.866-.08,1.307v.1C111.273,325.409,111.265,325.858,111.257,326.323Z" transform="translate(-22.047 -61.49)" fill="#f3d4b3"/>
  <path id="Path_519" data-name="Path 519" d="M112.232,310.887a3.3,3.3,0,0,1-.938-.409,2.662,2.662,0,0,1-1.227-1.443h0c-.345-1.147-.8-2.75-1.227-4.643h0v-.048c-.9-3.672-1.964-8.443-2.959-13.086-1.227-5.717-2.333-11.226-2.9-14.393-.048-.168-.537-2.454-.569-2.622-1.708-9.742,5.885-16.085,11.4-14.233l.217.08c1.107.441,1.419,4.346,1.668,6.984s2.125,29.981,2.59,34.92a19.624,19.624,0,0,1,.1,2.221C118.222,310.278,114.662,311.617,112.232,310.887Z" transform="translate(-20.248 -51.491)" fill="#f3d4b3"/>
  <path id="Path_520" data-name="Path 520" d="M111.512,317.737l-1.042-2.357a45.055,45.055,0,0,1,.746,9.021v.16a7.288,7.288,0,0,1-.08,1.307v.1a8.773,8.773,0,0,0,0,1.363h0c.192,1.147,1.523-4.546,1.828-5.877l.064-.265-1.05-2.486Z" transform="translate(-21.894 -62.527)" fill="#f3d4b3"/>
  <path id="Path_521" data-name="Path 521" d="M111.7,216.665c-.056,2.606-1.443,4.186-3.424,6.415-.257.385-.874,6.182-1.082,10.039-.1,2,.746,3.263,0,3.432-2.855,2.494-13.15,4.514-17.873,1.107.5-4.194-1.387-13.423-2.654-18.121-.192-.722-.369-1.331-.529-1.8-1.179-3.568-3.3-15-1.732-15.5.313-.1.8-.233,1.371-.4,2.47-.746,6.118-2.021,6.118-2.021s2.133,6.326,7.7,7.088c3.039-1.251,2.766-5.092,2.734-6.856.994.273,1.427.545,4.506,1.459.866,1.243.12,3.841,1.515,7.706C108.69,210.146,111.761,213.5,111.7,216.665Z" transform="translate(-16.617 -39.625)" fill="#6b65ae"/>
  <path id="Path_522" data-name="Path 522" d="M129.7,382.633c-3.376.609-6.984-.345-8.459-.088-1.227.208-4.37,1.01-5.541-.048s-.986-4.811.361-5.284a4.711,4.711,0,0,0,.882.208,9.244,9.244,0,0,0,4.009-.321c2.574,1.05,2.67,1.516,5.613,2.1a19.587,19.587,0,0,1,3.656,1.107C131.5,380.885,131.607,382.264,129.7,382.633Z" transform="translate(-22.776 -74.757)" fill="#534da0"/>
  <path id="Path_523" data-name="Path 523" d="M90.987,384.362c-3.384-.561-5.525-2.405-7.008-2.694-1.219-.217-4.3-.8-4.619-2.077-.241-.938.69-4.811,2.125-4.811a5.216,5.216,0,0,0,.8.5,9.245,9.245,0,0,0,3.873,1.042c2.061,1.86,1.989,2.333,4.538,3.873a19.187,19.187,0,0,1,3.127,2.317C94.772,383.44,92.9,384.691,90.987,384.362Z" transform="translate(-15.721 -74.298)" fill="#534da0"/>
  <path id="Path_524" data-name="Path 524" d="M39.23,212.263l2.686-3.207L58.29,223.713s8.018-10.664,10.215-13.992c2.406-3.656,4.6-6.792,8.147-7.4.8.505-.273,13.631-.706,13.968-4.947,3.7-14.577,15.652-17.64,16.269C54.8,233.287,39.23,212.263,39.23,212.263Z" transform="translate(-7.776 -40.122)" fill="#f3d4b3"/>
  <path id="Path_525" data-name="Path 525" d="M84.2,201.61s-3.352.048-4.811,1.235-8.323,12.1-8.323,12.1a4.859,4.859,0,0,0,1.828,3.817,10.047,10.047,0,0,0,4.955,2.141s3.456-3.44,5.4-5c1.219-.97,1.339,1.443,1.339,1.443l6.094-5.95Z" transform="translate(-14.086 -39.982)" fill="#6b65ae"/>
  <path id="Path_526" data-name="Path 526" d="M44.667,212.965s-3.857-3.1-4.121-3.945-.321-1.748-.633-2.574a4.811,4.811,0,0,0-2.678-2.662c-.97-.4-.5-.73-1.532-.529-1.6.3-2.3,1.836-2.927,3.031-2.662,5.108,4.635,6.07,4.891,6.086.529,0,3.207,3.1,3.207,3.1" transform="translate(-6.382 -40.296)" fill="#f9b8b0"/>
  <path id="Path_527" data-name="Path 527" d="M32.476,209.8l2.638,1.764a.73.73,0,0,0,1.034-.233l5.8-9.718-3.44-1.94-6.23,9.085a.73.73,0,0,0,.2,1.042Z" transform="translate(-6.371 -39.597)" fill="#8082be"/>
  <path id="Path_528" data-name="Path 528" d="M20.505,185.153l.914.617,3.672-5.356-.906-.617a3.063,3.063,0,0,0-4.178,1.082h0a3.047,3.047,0,0,0,.5,4.274Z" transform="translate(-3.838 -35.576)" fill="#c5c3e2"/>
  <path id="Path_529" data-name="Path 529" d="M16.6,190.313l16.911,2.566,3.857-5.629-8.532-14.77Z" transform="translate(-3.292 -34.209)" fill="#c5c3e2"/>
  <path id="Path_530" data-name="Path 530" d="M17.95,193.553l15.828,2.333,1.532-2.245L22,187.66Z" transform="translate(-3.56 -37.217)" fill="#bdbadd"/>
  <path id="Path_531" data-name="Path 531" d="M46.165,201.759h0a2.141,2.141,0,0,0,2.919-.754l.69-1a2.141,2.141,0,0,0-.353-2.991h0a2.165,2.165,0,0,0-2.927.8l-.682,1A2.125,2.125,0,0,0,46.165,201.759Z" transform="translate(-8.994 -39.016)" fill="#c5c3e2"/>
  <path id="Path_532" data-name="Path 532" d="M46.478,198l-.682.994a2,2,0,1,0,3.271,2.237l.69-1a2.2,2.2,0,0,0,.136-.233,1.965,1.965,0,1,1-3.231-2.213A2.546,2.546,0,0,0,46.478,198Z" transform="translate(-8.979 -39.223)" fill="#bdbadd"/>
  <path id="Path_533" data-name="Path 533" d="M15.8,190.648h0a1.267,1.267,0,0,0,1.716-.441l11.595-16.9a1.259,1.259,0,0,0-.208-1.756h0a1.267,1.267,0,0,0-1.716.449L15.594,188.892a1.251,1.251,0,0,0,.208,1.756Z" transform="translate(-3.04 -33.991)" fill="#a7a4d1"/>
  <path id="Path_534" data-name="Path 534" d="M29.209,172l-9.622,14.08a1.267,1.267,0,0,1-1.716.441,1.019,1.019,0,0,1-.3-.321l-1.94,2.822a1.251,1.251,0,0,0,.208,1.756,1.267,1.267,0,0,0,1.716-.441l11.595-16.9A1.323,1.323,0,0,0,29.209,172Z" transform="translate(-3.047 -34.114)" fill="#8082be"/>
  <path id="Path_535" data-name="Path 535" d="M39.2,199.424l1.09.746a3.84,3.84,0,0,0,5.22-1.355l1.09-1.6a3.811,3.811,0,0,0-.633-5.34l-1.09-.746a3.848,3.848,0,0,0-5.22,1.355l-1.09,1.6A3.808,3.808,0,0,0,39.2,199.424Z" transform="translate(-7.487 -37.795)" fill="#a7a4d1"/>
  <path id="Path_536" data-name="Path 536" d="M38.38,194.85l-1.6,2.405a1.2,1.2,0,0,0,.2,1.692l5.084,3.472a1.219,1.219,0,0,0,1.652-.433l1.6-2.365a1.219,1.219,0,0,1-1.652.425l-5.084-3.472a1.195,1.195,0,0,1-.2-1.724Z" transform="translate(-7.239 -38.642)" fill="#8082be"/>
  <path id="Path_537" data-name="Path 537" d="M33.243,207.922a5.332,5.332,0,0,1,.93-3.969,9.5,9.5,0,0,1,.946-1.05,1.419,1.419,0,0,1,.577-.377,1.8,1.8,0,0,1,1.235.281,2.237,2.237,0,0,1,1.01,1.01,1.339,1.339,0,0,1-.746,1.6.281.281,0,0,0-.136.136.505.505,0,0,0,.1.313,2.3,2.3,0,0,1,.393,1.323.8.8,0,0,1-.906.674c-.2,0-.465-.1-.529.04a.329.329,0,0,0,0,.176,1.411,1.411,0,0,1-.3,1.115.4.4,0,0,1-.249.152.73.73,0,0,1-.257,0,3.584,3.584,0,0,1-.9-.4" transform="translate(-6.576 -40.16)" fill="#f9b8b0"/>
  <path id="Path_538" data-name="Path 538" d="M41.787,209.232a18.282,18.282,0,0,1-.313-2.077,4.731,4.731,0,0,0-2.237-3.881.577.577,0,0,0-.361-.1.417.417,0,0,0-.3.353,1.066,1.066,0,0,0,.072.473c.16.5.858,1.411.641,1.916a5.829,5.829,0,0,0-.553,2.406c0,.738.369,1.924,1.235,2.045" transform="translate(-7.647 -40.291)" fill="#f9b8b0"/>
  <line id="Line_80" data-name="Line 80" x2="3.4" y2="8.018" transform="translate(14.535 130.092)" fill="none" stroke="#c5c3e2" stroke-linecap="round" stroke-linejoin="round" stroke-width="1.25"/>
  <line id="Line_81" data-name="Line 81" x2="6.976" y2="5.22" transform="translate(7.431 137.229)" fill="none" stroke="#c5c3e2" stroke-linecap="round" stroke-linejoin="round" stroke-width="1.25"/>
  <line id="Line_82" data-name="Line 82" x2="8.668" y2="0.85" transform="translate(2.94 146.939)" fill="none" stroke="#c5c3e2" stroke-linecap="round" stroke-linejoin="round" stroke-width="1.25"/>
  <path id="Path_539" data-name="Path 539" d="M346.035,75.414s-3.111-2.2-3.207-3.119-2.285-4.667-2.975-5.4-4.346-2.013-5.124-2.125-5.244.273-4.691.882,3.448.385,4.009.714l.561.337s-.561.754-.337,1.211-.954,1.163-.513,1.94-.176.722.225,1.532c.658,1.347,2.333,2.093,2.782,1.724.337.8,1.6,2.406,2.806,2.3s4.105,2.614,4.105,2.614" transform="translate(-65.395 -12.86)" fill="#dd9d7b"/>
  <path id="Path_540" data-name="Path 540" d="M406.366,58.55c.1,2.093-.04,5.733.561,6.278s2.526.449,2.526.449-6.912,8.74-7.529,8.259-8.82-7.136-6.952-7.481,3.632-.273,3.584-1.219-.1-1.9-.16-2.855" transform="translate(-78.217 -11.632)" fill="#dd9d7b"/>
  <path id="Path_541" data-name="Path 541" d="M410.161,106.814s-13.479,1.532-16.582,1.6-2.951-1.556-2.951-1.556c-.16-3.416-.738-11.466-1.379-14.2-.6-2.542-.8-2.734-1.467-5.124-.906-3.392-12.485,4.811-13.711-1.812l19.509-18.5s.8,2.478,4.21,2.526c4.506.056,5.91-3.1,5.91-3.1l10.985,7.289,1.026,17.737-1.315,14.609" transform="translate(-74.13 -13.237)" fill="#fcb64e"/>
  <path id="Path_542" data-name="Path 542" d="M371.73,176.246a28.8,28.8,0,0,0,.8,3.592c.353.922,3.36.072,3.56-.521s-.946-4.947-.946-4.947" transform="translate(-73.666 -34.584)" fill="#dd9d7b"/>
  <path id="Path_543" data-name="Path 543" d="M382.579,129.52c-4.7.922-8.82,2.021-13.567,1.4.658,1.9.513,3.312,1.131,5.99,2.053,8.82,2.758,20.743,3.279,28.064,0,0-4.659,2.879-7.81,1.435-4.707-11.619-12.172-31.063-10.68-41.968.874-6.415,17.849-7.393,29.748-9" transform="translate(-70.299 -22.906)" fill="#4b5c88"/>
  <path id="Path_544" data-name="Path 544" d="M403.033,116.457c3.745,2.734-20.751,13.03-20.751,13.03a40.306,40.306,0,0,1-8.018.8,5.894,5.894,0,0,1-.593-1.523c-.144-.706-.072-1.451-.192-2.165a5.035,5.035,0,0,0-2.446-3.3,11.13,11.13,0,0,0-4.009-1.3,54.276,54.276,0,0,0-9.093-.16c7.361-5.42,22.451-6.134,29.435-6.575C388.7,117.459,402.5,116.072,403.033,116.457Z" transform="translate(-70.931 -22.872)" fill="#4b5c88"/>
  <path id="Path_545" data-name="Path 545" d="M381.409,184.111a29.515,29.515,0,0,0,.168,3.688c.192.962,3.3.649,3.6.1s-.072-5.044-.072-5.044" transform="translate(-75.583 -36.266)" fill="#dd9d7b"/>
  <path id="Path_546" data-name="Path 546" d="M414.846,116.08a153.273,153.273,0,0,1-16.59.529c-2.117,0-19.685,3.071-21.217,5.789-2.526,4.466,2.734,30,2.349,48.7,0,0,4.418,2.1,7.818.593.842-9.189,6.679-29.083,2.935-39.194,8.82,1.171,12.212,3.111,21.537-2.077a8.076,8.076,0,0,0,3.737-4.811C416.266,123.2,416.217,118.261,414.846,116.08Z" transform="translate(-74.582 -23.033)" fill="#4f5f93"/>
  <path id="Path_547" data-name="Path 547" d="M387.057,67.37l-2.3.136a17.753,17.753,0,0,0-4.763.906c-2.181.8-3.729,2.838-5.5,4.426s-10.584,9.983-12.236,10.272-15.612-10.9-15.612-10.9l-5.485,5.982S358.319,91.6,363.018,91.626c2.285,0,14.866-6.607,18.891-9.189Z" transform="translate(-67.608 -13.38)" fill="#fcb64e"/>
  <path id="Path_548" data-name="Path 548" d="M363.365,91.047c-3.207.184-18.089-11.154-19.813-12.477l-.682.69s15.756,14.561,20.455,14.585c1.9,0,10.953-4.218,16.245-7.217l1.732-.4-1.179-5.709S366.8,90.854,363.365,91.047Z" transform="translate(-67.947 -15.599)" fill="#cf4b2f" opacity="0.25"/>
  <path id="Path_549" data-name="Path 549" d="M353.98,112.755h36.083l-6.471-22.042a2.782,2.782,0,0,0-2.646-2.053H349.337a1.876,1.876,0,0,0-1.716,2.406Z" transform="translate(-68.873 -17.599)" fill="#a7a4d1"/>
  <path id="Path_550" data-name="Path 550" d="M353.276,112.755h35.537l-6.471-22.042A2.79,2.79,0,0,0,379.7,88.66H348.1a1.868,1.868,0,0,0-1.716,2.406l6.2,21.12A.73.73,0,0,0,353.276,112.755Z" transform="translate(-68.627 -17.599)" fill="#e0d8ec"/>
  <g id="Group_114" data-name="Group 114" transform="translate(312.262 53.397)" opacity="0.25">
    <path id="Path_551" data-name="Path 551" d="M412.492,77.391a140.085,140.085,0,0,0-2.622,20.278c-6.3,2.406-8.868,6.086-15.042,8.82,0,0-4.867-.8-5.38,1.026-.3,1.058,5.7,1.908,5.7,1.908,5.717,0,20.8-4.154,21.818-4.434s4.009-19.445,4.105-29.844c0-1.483,0-3.087-.954-4.234a5.549,5.549,0,0,0-1.86-1.379,25.972,25.972,0,0,0-11.514-2.9" transform="translate(-389.437 -66.63)" fill="#cf4b2f"/>
  </g>
  <path id="Path_552" data-name="Path 552" d="M394.723,117.694a3.593,3.593,0,0,0-3-.954,24.108,24.108,0,0,0-2.406.192c-.369.048-.8.136-.8.529s1.764,0,2.718.273a48.046,48.046,0,0,1-5.613.152,1.6,1.6,0,0,0-.641.064.529.529,0,0,0-.361.489.666.666,0,0,0,.249.425,3.753,3.753,0,0,0,1.924.8,14.754,14.754,0,0,0,8.475-.754" transform="translate(-76.22 -23.163)" fill="#dd9d7b"/>
  <path id="Path_553" data-name="Path 553" d="M413.433,77.244c-.152,8.684-.762,12.653-.593,21.329-4.362.93-10.424,5.869-16.558,8.612a3.264,3.264,0,0,0,.2,2.261c.473.168,20.888-4.707,22.451-6.27,6.134-6.23,3.7-17.64,3.825-28.008a6.736,6.736,0,0,0-1.307-4.226c-.489-.609-8.86-4.009-13.375-4.282" transform="translate(-78.508 -13.239)" fill="#fcb64e"/>
  <path id="Path_554" data-name="Path 554" d="M375.68,104.964c.128,1.852-2.061,3.352-4.883,3.352s-5.22-1.5-5.348-3.352,2.053-3.344,4.875-3.344S375.512,103.119,375.68,104.964Z" transform="translate(-72.42 -20.167)" fill="none" stroke="#a7a4d1" stroke-miterlimit="10" stroke-width="1.67" opacity="0.45"/>
  <ellipse id="Ellipse_44" data-name="Ellipse 44" cx="1.86" cy="3.255" rx="1.86" ry="3.255" transform="translate(294.801 86.52) rotate(-87.77)" fill="#a7a4d1"/>
  <path id="Path_555" data-name="Path 555" d="M429.191,212.874s-2.6,5.228-3.376,5.573,1.892-1.09,3.352-2.6a31.008,31.008,0,0,0,3.464-5.469A29.714,29.714,0,0,0,429.191,212.874Z" transform="translate(-84.356 -41.719)" fill="#b3aeb1"/>
  <path id="Path_556" data-name="Path 556" d="M439.405,181.9a1.219,1.219,0,0,1,.369.8,6.5,6.5,0,0,1-.1,3.464,5.011,5.011,0,0,1-1.4,1.78,11.313,11.313,0,0,1-2.125,1.451" transform="translate(-86.432 -36.076)" fill="#dd9d7b"/>
  <g id="Group_115" data-name="Group 115" transform="translate(72.724 82.207)" opacity="0.3">
    <path id="Path_557" data-name="Path 557" d="M108.81,122.514l4.675,2.357-2.333-5.741" transform="translate(-94.289 -105.844)" fill="#4952a3"/>
    <path id="Path_558" data-name="Path 558" d="M90.7,111.893c0,5.148,4.434,9.325,9.895,9.325a9.346,9.346,0,1,0-9.895-9.325Z" transform="translate(-90.7 -102.56)" fill="#4952a3"/>
    <path id="Path_559" data-name="Path 559" d="M100,110.2v6.671a.706.706,0,0,0,1.05.609l5.773-3.336a.7.7,0,0,0,0-1.211L101.05,109.6a.7.7,0,0,0-1.05.6Z" transform="translate(-92.543 -103.935)" fill="#fff"/>
  </g>
  <ellipse id="Ellipse_45" data-name="Ellipse 45" cx="64.331" cy="4.779" rx="64.331" ry="4.779" transform="translate(311.687 302.968)" fill="#cfcce6"/>
  <ellipse id="Ellipse_46" data-name="Ellipse 46" cx="38.344" cy="4.041" rx="38.344" ry="4.041" transform="translate(338.003 318.451)" fill="#eae5f2"/>
  <path id="Path_560" data-name="Path 560" d="M494.648,393.014c-.128.722.9,2.919-.938,4.522s-6.014,3.3-3.247,3.368a16.037,16.037,0,0,0,6.824-1.275c1.411-.69.289-1.788,2.029-2.333,2.3-.73,1.828-2.405.633-3.464C498.417,390.392,495.057,390.673,494.648,393.014Z" transform="translate(-97.012 -77.561)" fill="#dd9d7b"/>
  <path id="Path_561" data-name="Path 561" d="M443.461,391.516c-.417.754-.393,3.656-2.742,4.675s-6.88,1.139-4.37,2.406a13.463,13.463,0,0,0,6.784,1.491c1.6-.184,1-1.892,2.83-1.764,2.406.168,2.67-1.924,2.013-3.608C448.007,390.185,444.808,389.063,443.461,391.516Z" transform="translate(-86.325 -77.363)" fill="#dd9d7b"/>
  <path id="Path_562" data-name="Path 562" d="M433,189.262a8.653,8.653,0,0,0,.8-.93c1.981-2.534,2.269-4.771,4.105-7.714a22.167,22.167,0,0,1,1.331-2.55,10.624,10.624,0,0,1,2.975-2.405c.858-.449.12,1.443.12,1.443s.73-1.058,1.427-.978c.273,0,.321,1.6.329,1.908a13.551,13.551,0,0,1-1.507,6.415,3.312,3.312,0,0,0-.505,1.451,3.28,3.28,0,0,0,1.724-.85,2.093,2.093,0,0,1,1.8-.529,4.277,4.277,0,0,1-.345.754c-.8,1.467-1.66,3.031-3.159,3.745-.9.425-1.94.505-2.814.97-1.6.8-2.357,2.79-3.961,3.584" transform="translate(-85.808 -34.826)" fill="#dd9d7b"/>
  <rect id="Rectangle_151" data-name="Rectangle 151" width="6.84" height="12.597" rx="1.08" transform="translate(355.948 141.084) rotate(22.7)" fill="#605faa"/>
  <rect id="Rectangle_152" data-name="Rectangle 152" width="5.733" height="11.242" transform="translate(356.366 141.994) rotate(22.7)" fill="#b5b4da"/>
  <path id="Path_563" data-name="Path 563" d="M446.929,270.24s-4.53.048-4.987,1.989c-2.446,10.328-6.254,44.1-5.829,48.062.521,4.763,4.442,48.4,4.442,48.4s8.644.994,8.772.545,7.754-72.967,7.754-72.967,5.861,30.406,8.082,34.359,16.422,36.884,16.422,36.884,10.7,4.426,10.632-1.411c-.112-10.352-19.42-94.945-19.42-94.945" transform="translate(-86.418 -53.582)" fill="#6f6864"/>
  <path id="Path_564" data-name="Path 564" d="M442.373,202.649a37.428,37.428,0,0,0-7.641,1.291c-5.436,1.6-7.313,4.153-9.189,5.188,3.648-4.635,7.722-14.433,7.722-14.433s-4.907-4.009-5.477-3.079-21.16,25.057-20.511,28.954c.265,1.6,2.646,3.207,4.755,3.127,5.845-.2,12.621-2.325,19.733-4.651,3.127-1.026,4.089,1.179,4.089,1.179" transform="translate(-80.707 -37.973)" fill="#a7a4d1"/>
  <path id="Path_565" data-name="Path 565" d="M448.63,182.2c0-.922-.994-1.515-1.836-.569a5.89,5.89,0,0,0-.914,3.392c-.048,1.323.978,1.6,1.82,1.772" transform="translate(-88.36 -35.927)" fill="#f2a182"/>
  <path id="Path_566" data-name="Path 566" d="M437.7,209.92c1.692-1.948,8.066-1.3,14.289-4.931,3.953-2.309,18.442.97,19.99,4.3.8,1.692,1.6,19.068.465,25.065-.85,4.506-3.023,15.668-3.023,18.362s1.443,3.849.8,4.627c-1.507,1.756-11.851,2.486-16.7,2.486-4.322,0-11.683-1.147-12.028-2.534-.553-2.053-2.806-.112-2.622-2.261s1.467-31.167.329-34.222C438.284,218.476,436,211.868,437.7,209.92Z" transform="translate(-86.617 -40.498)" fill="#a7a4d1"/>
  <path id="Path_567" data-name="Path 567" d="M471.932,228.833c.521,1.074,4.009,6.7,4.009,6.7l.144.674c-.088,1.163,2.839,6.623,3.135,7.4,1.6,4.226,3.56,6.679,1.507,9.983-1.419,2.285.561,10.039-5.613,11.53-1.948.473-22.347,2.333-21.393-2.181.088-.409,16.366-12.829,16.454-13.246.754-3.56,1.4-6.126,1.732-8.732C472.725,234.7,471.418,227.758,471.932,228.833Z" transform="translate(-89.908 -45.354)" fill="#9595c5"/>
  <path id="Path_568" data-name="Path 568" d="M450.372,196.552s0,5.613-.273,5.877a9.016,9.016,0,0,1-1.339.754s.8,4.915,2.021,4.554,9.4-4.474,9.4-4.474-1.155-.465-1.155-.922S460.082,193,460.082,193" transform="translate(-88.931 -38.275)" fill="#dd9d7b"/>
  <path id="Path_569" data-name="Path 569" d="M450.181,213.13s-.473,22.05-1.371,35.473l3.247,4.474,2.229-5.613a170.9,170.9,0,0,0-2.117-34.182Z" transform="translate(-88.941 -42.264)" fill="#171845"/>
  <path id="Path_570" data-name="Path 570" d="M449.59,210.357l.08.3a6.416,6.416,0,0,0,.666,1.6h0l2,.152s1.347-.714,1.531-1.475-2.221-2.013-2.221-2.013l-.3.12a4.322,4.322,0,0,0-1.732,1.243Z" transform="translate(-89.095 -41.432)" fill="#171845"/>
  <path id="Path_571" data-name="Path 571" d="M459.805,201.93a8.347,8.347,0,0,1,2.269,2.3c-1.018,2.341-3.336,6.5-5.885,8.4a11.515,11.515,0,0,0-4.009-5.052S459.092,206.34,459.805,201.93Z" transform="translate(-89.608 -40.045)" fill="#fff"/>
  <path id="Path_572" data-name="Path 572" d="M451.143,207.678a8.563,8.563,0,0,0-3.961,3.769,19.027,19.027,0,0,1,.537-6.984s1.6-2.085,2.2-2.133a10.929,10.929,0,0,0,1.227,5.348Z" transform="translate(-88.596 -40.124)" fill="#fff"/>
  <path id="Path_573" data-name="Path 573" d="M451.3,271.39c-2.47.377-3.376,1.291-4.811,2.662a.529.529,0,0,0-.208.409c0,.2.265.289.465.321,1.139.176,1.331-.553,2.405-.994l2.157-.93" transform="translate(-88.439 -53.81)" fill="#f2a182"/>
  <path id="Path_574" data-name="Path 574" d="M436.817,248.7l8.74,27.992a.994.994,0,0,1-.922,1.4L426.4,279.7a1.7,1.7,0,0,1-1.524-1.179l-9.406-27.575c-.233-.754.85-1.828,1.6-1.836l18.234-1.6A1.692,1.692,0,0,1,436.817,248.7Z" transform="translate(-82.328 -49.077)" fill="#e9e5f2"/>
  <path id="Path_575" data-name="Path 575" d="M436.217,249.607l8.612,27.567a.994.994,0,0,1-.922,1.4l-18.234,1.6A1.676,1.676,0,0,1,424.149,279l-8.62-27.567a1.01,1.01,0,0,1,.93-1.411l18.226-1.6a1.684,1.684,0,0,1,1.531,1.187Z" transform="translate(-82.329 -49.258)" fill="#e0d8ec"/>
  <path id="Path_576" data-name="Path 576" d="M423.19,248.6l.641,2.414,8.532-.746-.706-2.414Z" transform="translate(-83.864 -49.145)" fill="#fff"/>
  <path id="Path_577" data-name="Path 577" d="M425.166,245.425l.858,2.734,4.065-.377-.85-2.734a2.774,2.774,0,0,0-2.7-1.948,1.668,1.668,0,0,0-1.371,2.325Zm.906-.056a.93.93,0,0,1,.762-1.3,1.531,1.531,0,0,1,1.515,1.091.93.93,0,0,1-.762,1.3,1.54,1.54,0,0,1-1.516-1.107Z" transform="translate(-84.228 -48.203)" fill="#fff"/>
  <path id="Path_578" data-name="Path 578" d="M458.1,269c-1.916.4-7.008,1.924-7.545,2.173a22.089,22.089,0,0,0-3.247,2.405c-1.924,1.924-.938,2.822-1.692,5.428a1.453,1.453,0,0,0-.048.417c0,.273.361.505.738.249.2.337.8.128,1.074-.233,0,.257.361.425.946.1.321-.176.265-.16.994-.8a7.489,7.489,0,0,1,2.077-1.267,14.862,14.862,0,0,0,2.021-.922c.8-.513,2.157-.633,2.839-2.838a2.221,2.221,0,0,1,1.066-1.066l3.111-1.956" transform="translate(-88.298 -53.336)" fill="#dd9d7b"/>
  <path id="Path_579" data-name="Path 579" d="M472.2,220.481c.8,2.887,4.178,22.933,4.178,22.933l-19,13.776,1.6,4.154s24.5-8.435,26.228-13.671c3.071-9.309-2.895-25.723-6.182-33.845-1.171-2.887-4.105-6.415-7-7.593l-4.715-.882" transform="translate(-90.639 -40.723)" fill="#a7a4d1"/>
  <path id="Path_580" data-name="Path 580" d="M450.835,278a8.574,8.574,0,0,1-.8.69,5.776,5.776,0,0,0-.69.714c-.2.273-.433.521-.65.8a5.316,5.316,0,0,1-.754.714c.168-.313.353-.593.529-.89a7.681,7.681,0,0,1,.633-.8,3.447,3.447,0,0,1,.8-.69A7.631,7.631,0,0,1,450.835,278Z" transform="translate(-88.768 -55.119)" fill="#f2a182"/>
  <path id="Path_581" data-name="Path 581" d="M449.548,276.38a5.355,5.355,0,0,0-.8.994,8.02,8.02,0,0,0-.658,1.074,10.616,10.616,0,0,1-.585,1.171,11.1,11.1,0,0,1-.754,1.066c.144-.417.329-.8.5-1.2l.553-1.163a5.093,5.093,0,0,1,.762-1.09A3.48,3.48,0,0,1,449.548,276.38Z" transform="translate(-88.532 -54.798)" fill="#f2a182"/>
  <path id="Path_582" data-name="Path 582" d="M448.2,275.11a9.547,9.547,0,0,1-.754,1.018,1.515,1.515,0,0,0-.313.505l-.241.577c-.144.385-.321.762-.449,1.155l-.457,1.179a6.035,6.035,0,0,1,.184-1.259,7.219,7.219,0,0,1,.433-1.2c.088-.192.176-.385.281-.569a2.607,2.607,0,0,1,.409-.521C447.6,275.679,447.922,275.423,448.2,275.11Z" transform="translate(-88.382 -54.547)" fill="#f2a182"/>
  <path id="Path_583" data-name="Path 583" d="M450.768,198l3.5.641a4.883,4.883,0,0,1-3.544,1.307" transform="translate(-89.319 -39.266)" fill="#d28969"/>
  <path id="Path_584" data-name="Path 584" d="M461.228,184.821c3.247-7.088,3.079-13.23-2.678-15.652s-11.338-1.732-14.369,5.469-1.515,17.2.8,18.619C450.259,196.568,459.184,189.295,461.228,184.821Z" transform="translate(-87.688 -33.303)" fill="#dd9d7b"/>
  <path id="Path_585" data-name="Path 585" d="M459.439,188.337l-1.066-.617s3.207-3.881,2.157-5.2c-1.516-1.884-2.734-.8-3.544-.273-3.745,2.406-.8,8.131-2.646,9.622-4.266,3.5-8.62,2.406-10.3.4-3.288-3.929,2.766-1.989,2.309-4.322-.345-1.764-4.883.345-4.3-1.989.505-2.021,5.613,2.678,8.082,1.548,1.6-.746,4.009-3.785,4.667-10.191.722-7.217-7.3-2.951-9.093-4.53-1.989-1.756-.4-2.806.537-3.536,1.6-1.227,11.386-5.116,16.2,1.074C469.606,179.564,459.439,188.337,459.439,188.337Z" transform="translate(-87.59 -33.107)" fill="#171845"/>
  <path id="Path_586" data-name="Path 586" d="M502.077,400.031,483.426,405.2s-1.074-1.307-.569-2.3,2.9-.449,3.512-1.018,6.415-6.856,6.415-6.856,2.309,1.868,3.672,1.94,3.159-1.94,3.159-1.94Z" transform="translate(-95.661 -78.309)" fill="#6f6864"/>
  <path id="Path_587" data-name="Path 587" d="M445.362,402.532l-16.037,1.05s-.8-1.507-.08-2.406,2.67-.8,3.384-1.251,7.97-4.426,7.97-4.426,1.876,2.293,3.207,2.638,3.488-1.251,3.488-1.251l.561,2.221a2.734,2.734,0,0,1-2.494,3.424Z" transform="translate(-85.004 -78.404)" fill="#6f6864"/>
  <path id="Path_588" data-name="Path 588" d="M86.042,250.26c-11.627,13.631-11.891,92.4-6.936,93.286,8.315,1.483,9.774,2.806,10.231,1.956s6.3-53.065,7.625-64.764a.273.273,0,0,1,.545,0l7.858,63.185a1.716,1.716,0,0,0,2.085,1.451c3.071-.73,9.253-1.451,10.071-2.093s-.658-85.387-11.346-95.1C101.357,243.805,90.227,245.345,86.042,250.26Z" transform="translate(-15.074 -48.7)" fill="#8082be"/>
  <path id="Path_589" data-name="Path 589" d="M131.813,221.132c3.207-2.157,1.058-4.186-2.077-5.829-.85-.441-11.418,7.337-16.887,5.2-4.113-1.6-9.149-19.124-12.869-20.511-4.627-1.716-6.551,4.659-10.841,4.659-5.837,0-10.135-7.617-15.331-3.424-2.927,2.357-10.191,12.469-14.818,18.354-1.916,2.406-9.157-6.359-13.679-9.9-1.772-1.387-4.707,3.865-4.731,4.29-.136,1.86,12.869,17.079,15.6,18.442,10.36,5.14,14.778-15.355,18.667-12.781,2.341,1.548-5.108,23.975-1.1,27.583,4.362,3.937,27.311-3.336,30.181-2.879,4.162.674-5.164-25.25-1.548-19.044C110.965,240.031,125.4,225.374,131.813,221.132Z" transform="translate(-8.044 -39.602)" fill="#d9363e"/>
  <path id="Path_590" data-name="Path 590" d="M98.122,201.376H93.848L88.5,197.367V180.4s7.056.112,7.056.561S98.122,201.376,98.122,201.376Z" transform="translate(-17.54 -35.779)" fill="#dca857"/>
  <path id="Path_591" data-name="Path 591" d="M92.62,177.916c0,5.693,4.306,11.747,6.759,11.771,4.811.048,6.8-5.509,6.8-11.226s-3.031-9.422-6.8-9.422S92.62,172.215,92.62,177.916Z" transform="translate(-18.356 -33.527)" fill="#f3d4b3"/>
  <path id="Path_592" data-name="Path 592" d="M97.826,168.832s-4.883,10.881-9.317,11.554c-2.085.321,2.406,7.521,1.026,10.881s2.293,7.072,1.981,7.072-10.945-3.592-10.945-3.592,3.857-7.826,3.961-11.426S87.057,164.494,97,165.1s7.337,17.873,7.754,19.332,4.17,11.442,4.17,11.442l-11.089,2.021,1.6-9.486a10.8,10.8,0,0,0,.994-.641c2.037-1.844,4.346-6.775,2.462-10.592a73.91,73.91,0,0,0-5.068-8.339Z" transform="translate(-15.969 -32.742)" fill="#e8b65d"/>
  <circle id="Ellipse_47" data-name="Ellipse 47" cx="2.389" cy="2.389" r="2.389" transform="translate(83.581 142.817)" fill="none" stroke="#ed2e2e" stroke-miterlimit="10" stroke-width="0.55"/>
  <circle id="Ellipse_48" data-name="Ellipse 48" cx="2.389" cy="2.389" r="2.389" transform="translate(77.375 143.331)" fill="none" stroke="#ed2e2e" stroke-miterlimit="10" stroke-width="0.55"/>
  <path id="Path_593" data-name="Path 593" d="M103.816,180.14s-1.163-.345-1.716.385" transform="translate(-20.235 -35.711)" fill="none" stroke="#ed2e2e" stroke-miterlimit="10" stroke-width="0.37"/>
  <line id="Line_83" data-name="Line 83" x1="1.187" transform="translate(76.188 145.207)" fill="none" stroke="#ed2e2e" stroke-miterlimit="10" stroke-width="0.37"/>
  <path id="Path_594" data-name="Path 594" d="M392.834,48.677c-.3-4.963,2.149-8.82,7.329-8.3,3.536.369,9.622,5.092,8.6,9.967-.938,4.554-8.267,7.674-10.568,7.433C395.5,57.5,393.034,52,392.834,48.677Z" transform="translate(-77.843 -8.022)" fill="#dd9d7b"/>
  <path id="Path_595" data-name="Path 595" d="M396.848,41.165s4.611-2.686,4.466,2.406,1.2,10.865,4.915,11.378a7.7,7.7,0,0,0,6.294-2.406s1.259-17.352-11-16.55c-13.631.978-7.826,15.676-7.826,15.676s-1.1-8.652,1.475-10.544C396.623,40.083,396.848,41.165,396.848,41.165Z" transform="translate(-77.776 -7.157)" fill="#171845"/>
  <path id="Path_596" data-name="Path 596" d="M395.089,57.458c-.385-.674.553-.8,1.956-.842s2.245.8,3.207,1.034,1.965-3.48,1.965-3.48,2.045,4.194,3.039,4.009-5.5,3.247-7.1,2.887-3.151-2.221-1.219-2.117c.866.048.641-1.163-.136-1.131C395.04,57.891,395.409,58.043,395.089,57.458Z" transform="translate(-78.278 -10.764)" fill="#171845"/>
  <path id="Path_597" data-name="Path 597" d="M384.989,192.613l-14.128,5.356s-.882-1.435-.441-2.317,1.564-.537,2.061-1.034S379,188.066,379,188.066s.706,1.387,1.772,1.507,2.566-1.6,2.566-1.6Z" transform="translate(-73.382 -37.279)" fill="#29367a"/>
  <path id="Path_598" data-name="Path 598" d="M376.062,184.336l-13.19,5s-.8-1.339-.409-2.157,1.459-.505,1.924-.97,6.078-6.11,6.078-6.11.666,1.291,1.652,1.4,2.406-1.507,2.406-1.507Z" transform="translate(-71.808 -35.697)" fill="#25326b"/>
</svg>
