<svg xmlns="http://www.w3.org/2000/svg" width="97.339" height="17" viewBox="0 0 97.339 17">
  <g id="logo-sec" transform="translate(0 0.5)">
    <g id="logo">
      <path id="Path_1" data-name="Path 1" d="M10.667,5.284A3.728,3.728,0,0,0,8,4.247,3.632,3.632,0,0,0,4.247,8,3.632,3.632,0,0,0,8,11.753a3.567,3.567,0,0,0,2.667-1.086L13.63,13.63A8.065,8.065,0,0,1,7.951,16,8,8,0,1,1,13.63,2.321Z" fill="#fcb64e"/>
      <path id="Path_2" data-name="Path 2" d="M49,7.407V8a8.008,8.008,0,1,1-2.37-5.679L43.667,5.284A3.853,3.853,0,0,0,41,4.2,3.731,3.731,0,0,0,37.247,8,3.793,3.793,0,0,0,41,11.8a3.952,3.952,0,0,0,3.111-1.58H41V7.407Z" transform="translate(-16.704)" fill="#fff"/>
      <path id="Path_3" data-name="Path 3" d="M79.284,16l-2.469-4.247H74.2V16H70V0h6.716a5.891,5.891,0,0,1,5.877,5.877,5.8,5.8,0,0,1-1.877,4.3l3.407,5.778h-4.84ZM74.2,8.1h2.617a2.277,2.277,0,0,0,2.321-2.272,2.318,2.318,0,0,0-2.321-2.321H74.2Z" transform="translate(-35.432)" fill="#fff"/>
      <path id="Path_4" data-name="Path 4" d="M109.251,0a7.975,7.975,0,1,1,0,15.951,7.975,7.975,0,0,1,0-15.951Zm0,4.2a3.8,3.8,0,1,0,3.8,3.8A3.773,3.773,0,0,0,109.251,4.2Z" transform="translate(-51.275)" fill="#fff"/>
      <path id="Path_5" data-name="Path 5" d="M142.8,9.63a2.074,2.074,0,1,0,4.148,0V0h4.2V9.679a6.321,6.321,0,0,1-12.642,0V0h4.2V9.63Z" transform="translate(-70.105)" fill="#fff"/>
      <path id="Path_6" data-name="Path 6" d="M170.6,0h6.716a5.877,5.877,0,0,1,.1,11.753H174.8V16h-4.2Zm4.2,8.1h2.617a2.277,2.277,0,0,0,2.321-2.272,2.318,2.318,0,0,0-2.321-2.321H174.8Z" transform="translate(-86.353)" fill="#fff"/>
    </g>
    <g id="stroke_logo" data-name="stroke logo" transform="translate(-60 -60)">
      <path id="Path_1-2" data-name="Path 1" d="M10.667,5.284A3.728,3.728,0,0,0,8,4.247,3.632,3.632,0,0,0,4.247,8,3.632,3.632,0,0,0,8,11.753a3.567,3.567,0,0,0,2.667-1.086L13.63,13.63A8.065,8.065,0,0,1,7.951,16,8,8,0,1,1,13.63,2.321Z" transform="translate(60 60)" fill="#fcb64e"/>
      <path id="Union_2" data-name="Union 2" d="M67.951,16V0h6.716a5.877,5.877,0,0,1,.1,11.753H72.148V16Zm4.2-7.9h2.617a2.278,2.278,0,0,0,2.321-2.272,2.319,2.319,0,0,0-2.321-2.321H72.148ZM52.1,9.679V0h4.2l.1,9.516V9.63a2.074,2.074,0,0,0,4.148,0V0h4.2V9.679a6.321,6.321,0,1,1-12.641,0ZM18.272,16V0h6.716a5.891,5.891,0,0,1,5.877,5.876,5.8,5.8,0,0,1-1.877,4.3L32.4,15.951H28.079l-.095-.139-2.9-4.059H22.469V16Zm4.2-7.9h2.617a2.278,2.278,0,0,0,2.321-2.272,2.319,2.319,0,0,0-2.321-2.321H22.469ZM0,8A8,8,0,0,1,13.63,2.321L10.667,5.284A3.854,3.854,0,0,0,8,4.2,3.731,3.731,0,0,0,4.247,8,3.793,3.793,0,0,0,8,11.8a3.952,3.952,0,0,0,3.111-1.58H8V7.407h8V8A8,8,0,0,1,0,8ZM33.728,8a7.975,7.975,0,1,1,7.951,7.951A7.988,7.988,0,0,1,33.728,8Zm4.148,0a3.8,3.8,0,0,0,7.605,0,3.773,3.773,0,0,0-3.8-3.8A3.836,3.836,0,0,0,37.876,8Z" transform="translate(76.296 60)" fill="none" stroke="#4d4d4d" stroke-width="1"/>
    </g>
  </g>
</svg>
