<svg xmlns="http://www.w3.org/2000/svg" width="14" height="12" viewBox="0 0 14 12">
  <g id="twgrey" transform="translate(0 -48)">
    <g id="Group_539" data-name="Group 539" transform="translate(0 48)">
      <path id="Path_3504" data-name="Path 3504" d="M14,49.421a5.743,5.743,0,0,1-1.654.478,2.988,2.988,0,0,0,1.263-1.674,5.558,5.558,0,0,1-1.82.733A2.809,2.809,0,0,0,9.692,48a2.951,2.951,0,0,0-2.868,3.029,3.283,3.283,0,0,0,.067.69A7.993,7.993,0,0,1,.975,48.552a3.177,3.177,0,0,0-.393,1.53A3.079,3.079,0,0,0,1.857,52.6a2.722,2.722,0,0,1-1.3-.373v.033a3.006,3.006,0,0,0,2.3,2.975,2.724,2.724,0,0,1-.753.1,2.41,2.41,0,0,1-.543-.052,2.922,2.922,0,0,0,2.682,2.109A5.579,5.579,0,0,1,.687,58.683,5.1,5.1,0,0,1,0,58.641,7.778,7.778,0,0,0,4.4,60c5.281,0,8.169-4.615,8.169-8.616,0-.134,0-.263-.01-.391A5.91,5.91,0,0,0,14,49.421Z" transform="translate(0 -48)" fill="#546e7a"/>
    </g>
  </g>
</svg>
